<svg width="16" height="16" viewBox="0 0 16 16" fill="none" xmlns="http://www.w3.org/2000/svg">
<path opacity="0.6" d="M5.6256 13.6278C4.90279 12.9671 4.69177 11.5788 4.99293 10.573C5.5151 11.2071 6.23861 11.408 6.98802 11.5214C8.14494 11.6964 9.28115 11.6309 10.3559 11.1022C10.4788 11.0416 10.5925 10.9611 10.7268 10.8796C10.8276 11.1721 10.8539 11.4675 10.8187 11.7681C10.733 12.5003 10.3687 13.0658 9.78917 13.4945C9.55744 13.666 9.31224 13.8193 9.07291 13.981C8.33766 14.4779 8.13874 15.0606 8.41501 15.9081C8.42158 15.9289 8.42745 15.9496 8.4423 16C8.0669 15.8319 7.79269 15.5872 7.58375 15.2656C7.36307 14.9262 7.25808 14.5507 7.25256 14.1444C7.24979 13.9467 7.24979 13.7472 7.22321 13.5522C7.15828 13.077 6.93518 12.8642 6.51489 12.852C6.08354 12.8394 5.74234 13.106 5.65186 13.526C5.64495 13.5582 5.63493 13.59 5.62491 13.6275L5.6256 13.6278Z" fill="black"/>
<path d="M1.5 10.4055C1.5 10.4055 3.6404 9.36279 5.78677 9.36279L7.40506 4.35445C7.46565 4.11225 7.64255 3.94765 7.84227 3.94765C8.04198 3.94765 8.21888 4.11225 8.27947 4.35445L9.89777 9.36279C12.4398 9.36279 14.1845 10.4055 14.1845 10.4055C14.1845 10.4055 10.5489 0.501283 10.5418 0.481412C10.4375 0.188591 10.2613 0 10.0238 0H5.66111C5.42362 0 5.25457 0.188591 5.14313 0.481412C5.13526 0.500909 1.5 10.4055 1.5 10.4055Z" fill="black"/>
</svg>
