<svg width="16" height="16" viewBox="0 0 16 16" fill="none" xmlns="http://www.w3.org/2000/svg">
<path fill-rule="evenodd" clip-rule="evenodd" d="M9.99023 0C11.2746 0.031746 12.1521 0.222579 12.6533 0.540039C13.4988 0.95269 13.9374 1.42866 14 2.06348V2.28613C13.9373 3.14294 13.7496 3.80951 13.4678 4.19043L12.0889 5.42871C11.5879 5.68261 11.3692 5.90478 11.3691 6.06348C12.1406 6.88085 12.6993 7.34744 12.2148 8.47656C11.9016 9.20659 11.2435 9.96822 10.1787 10.7617C9.67751 11.0792 8.2985 12.1112 7.21777 12.6191C5.57535 13.3911 4.12657 14.0184 2.56641 14.5078C2.34713 14.984 2.00203 15.4921 1.56348 16H1.43848V15.9678C1.56374 15.5553 1.68919 15.2695 1.81445 15.1426C1.9396 14.9206 2.00188 14.7622 1.9707 14.667V14.54C1.90835 14.5714 1.87695 14.5395 1.87695 14.5078L1.75195 14.5713H1.6582V14.4766H1.59473C1.5007 14.5399 1.34394 14.6036 1.0625 14.667L1 14.5078C3.06741 10.8254 4.82176 6.98427 6.2627 2.98438C6.20014 2.95268 6.16904 2.85744 6.16895 2.79395C6.23158 2.79358 6.32511 2.66615 6.48145 2.44434L6.4502 2.34961C5.66738 2.60355 4.88443 3.04752 4.07031 3.65039L3.94434 3.68262C3.94434 3.61915 3.88207 3.5552 3.72559 3.52344C3.41233 3.71391 3.16174 3.96869 2.91113 4.22266L2.78516 4.03223L2.94238 3.96777L2.91113 3.80957L2.56641 4.0957L2.50391 4C2.75432 3.6828 2.97324 3.49186 3.22363 3.45996L3.38086 3.49219L3.25586 3.36523V3.30176C3.38055 3.30168 3.41199 3.26993 3.41211 3.23828L3.53711 3.26953H3.59961L3.53711 3.1748C4.28728 2.6363 4.6634 2.35045 4.66504 2.28613V2.25391H4.60254L4.47754 2.31738C4.47751 2.25394 4.44544 2.22266 4.38281 2.22266L4.22656 2.28613L4.19531 2.19043C4.82177 1.84125 5.35437 1.49176 5.82422 1.14258C7.51563 0.475987 8.92523 0.0952532 9.99023 0ZM8.95703 7.33301L8.64355 7.36523C7.32815 7.90481 6.32569 8.19034 5.73047 8.25391C4.32083 11.0793 3.56843 12.6035 3.53711 12.7939H3.59961C3.97551 12.7622 5.00976 12.2859 6.63867 11.3652C6.73297 11.3649 7.26552 11.0155 8.29883 10.3174L9.67676 9.20605V9.23828C9.98999 9.1113 10.2406 8.66661 10.4912 7.93652V7.74609C10.1467 7.42881 9.64586 7.30134 8.95703 7.33301ZM9.23828 1.58691C8.73755 1.68207 8.48764 1.77758 8.51855 1.96777L7.35938 4.57129C7.2341 4.63477 7.13991 4.95226 7.01465 5.52344C6.8267 5.8409 6.73235 6.09566 6.76367 6.28613V6.38086L6.9834 6.44434C8.36155 5.8095 9.14499 5.52393 9.36426 5.49219C9.99064 5.07956 10.3981 4.76223 10.5547 4.60352C10.5868 4.6023 10.7114 4.47468 10.8984 4.19043C11.0864 4.19043 11.4315 3.80969 11.9014 3.11133L11.9326 2.79395H12.0264C12.0576 2.88883 12.0891 2.95185 12.1514 2.95215C12.3078 2.73014 12.4021 2.54007 12.3711 2.41309C12.3711 2.19087 12.2145 2.00003 11.9639 1.87305H11.8389L11.8701 2.12695H11.7441C11.7128 1.68256 11.2433 1.4917 10.335 1.58691L9.42676 1.71387L9.39551 1.55566L9.23828 1.58691Z" fill="black"/>
</svg>
