<svg width="16" height="16" viewBox="0 0 16 16" fill="none" xmlns="http://www.w3.org/2000/svg">
<path opacity="0.2" d="M8 0C1.412 0 0 1.412 0 8C0 14.588 1.412 16 8 16C14.588 16 16 14.588 16 8C16 1.412 14.588 0 8 0Z" fill="black"/>
<path d="M11 11C11.2761 11 11.5 11.2239 11.5 11.5C11.5 11.7761 11.2761 12 11 12H8.5C8.22386 12 8 11.7761 8 11.5C8 11.2239 8.22386 11 8.5 11H11Z" fill="black"/>
<path d="M5 4.25C5.27614 4.25 5.5 4.47386 5.5 4.75V5.05762C6.31573 5.24424 7 5.8765 7 6.75C7 7.02614 6.77614 7.25 6.5 7.25C6.22386 7.25 6 7.02614 6 6.75C6 6.41727 5.64151 6 5 6C4.35849 6 4 6.41727 4 6.75C4 6.92135 4.06265 7.04303 4.2168 7.16113C4.39424 7.29706 4.68628 7.41725 5.10938 7.51172C5.58616 7.61821 6.04413 7.77874 6.3916 8.04492C6.76228 8.32896 7 8.73112 7 9.25C7 10.1234 6.31564 10.7547 5.5 10.9414V11.25C5.5 11.5261 5.27614 11.75 5 11.75C4.72386 11.75 4.5 11.5261 4.5 11.25V10.9414C3.68436 10.7547 3 10.1234 3 9.25C3 8.97386 3.22386 8.75 3.5 8.75C3.77614 8.75 4 8.97386 4 9.25C4 9.58273 4.35849 10 5 10C5.64151 10 6 9.58273 6 9.25C6 9.07865 5.93735 8.95697 5.7832 8.83887C5.60576 8.70294 5.31372 8.58275 4.89062 8.48828C4.41384 8.38179 3.95587 8.22126 3.6084 7.95508C3.23772 7.67104 3 7.26888 3 6.75C3 5.8765 3.68427 5.24424 4.5 5.05762V4.75C4.5 4.47386 4.72386 4.25 5 4.25Z" fill="black"/>
</svg>
