<svg width="16" height="16" viewBox="0 0 16 16" fill="none" xmlns="http://www.w3.org/2000/svg">
<path d="M8 1C13.7645 1 15 2.2355 15 8C15 13.7645 13.7645 15 8 15C2.2355 15 1 13.7645 1 8C1 2.2355 2.2355 1 8 1ZM8 4C7.71149 4 7.46543 4.20859 7.41797 4.49316L7.05859 6.64746C7.02347 6.8582 6.8582 7.02347 6.64746 7.05859L4.49316 7.41797C4.20859 7.46543 4 7.71149 4 8C4 8.28851 4.20859 8.53457 4.49316 8.58203L6.64746 8.94141C6.8582 8.97653 7.02347 9.1418 7.05859 9.35254L7.41797 11.5068C7.46543 11.7914 7.71149 12 8 12C8.28851 12 8.53457 11.7914 8.58203 11.5068L8.94141 9.35254C8.97653 9.1418 9.1418 8.97653 9.35254 8.94141L11.5068 8.58203C11.7914 8.53457 12 8.28851 12 8C12 7.71149 11.7914 7.46543 11.5068 7.41797L9.35254 7.05859C9.1418 7.02347 8.97653 6.8582 8.94141 6.64746L8.58203 4.49316C8.53457 4.20859 8.28851 4 8 4Z" fill="black"/>
</svg>
