<svg width="16" height="16" viewBox="0 0 16 16" fill="none" xmlns="http://www.w3.org/2000/svg">
<path fill-rule="evenodd" clip-rule="evenodd" d="M8 0C14.588 0 16 1.412 16 8C16 14.588 14.588 16 8 16C1.412 16 0 14.588 0 8C0 1.412 1.412 0 8 0ZM8.5 11C8.22386 11 8 11.2239 8 11.5C8 11.7761 8.22386 12 8.5 12H11C11.2761 12 11.5 11.7761 11.5 11.5C11.5 11.2239 11.2761 11 11 11H8.5ZM5 4.25C4.72386 4.25 4.5 4.47386 4.5 4.75V5.05762C3.68427 5.24424 3 5.8765 3 6.75C3 7.26888 3.23772 7.67104 3.6084 7.95508C3.95587 8.22126 4.41384 8.38179 4.89062 8.48828C5.31372 8.58275 5.60576 8.70294 5.7832 8.83887C5.93735 8.95697 6 9.07865 6 9.25C6 9.58273 5.64151 10 5 10C4.35849 10 4 9.58273 4 9.25C4 8.97386 3.77614 8.75 3.5 8.75C3.22386 8.75 3 8.97386 3 9.25C3 10.1234 3.68436 10.7547 4.5 10.9414V11.25C4.5 11.5261 4.72386 11.75 5 11.75C5.27614 11.75 5.5 11.5261 5.5 11.25V10.9414C6.31564 10.7547 7 10.1234 7 9.25C7 8.73112 6.76228 8.32896 6.3916 8.04492C6.04413 7.77874 5.58616 7.61821 5.10938 7.51172C4.68628 7.41725 4.39424 7.29706 4.2168 7.16113C4.06265 7.04303 4 6.92135 4 6.75C4 6.41727 4.35849 6 5 6C5.64151 6 6 6.41727 6 6.75C6 7.02614 6.22386 7.25 6.5 7.25C6.77614 7.25 7 7.02614 7 6.75C7 5.8765 6.31573 5.24424 5.5 5.05762V4.75C5.5 4.47386 5.27614 4.25 5 4.25Z" fill="black"/>
</svg>
