<svg width="16" height="16" viewBox="0 0 16 16" fill="none" xmlns="http://www.w3.org/2000/svg">
<path fill-rule="evenodd" clip-rule="evenodd" d="M7.5 1.21088C7.8093 1.03241 8.1907 1.03241 8.5 1.21088L13.6289 4.1728C13.9383 4.35141 14.1289 4.68178 14.1289 5.03901V10.9609C14.1289 11.3181 13.9383 11.6485 13.6289 11.8271L8.5 14.789C8.19069 14.9675 7.80932 14.9675 7.5 14.789L2.37109 11.8271C2.06172 11.6485 1.87109 11.3181 1.87109 10.9609V5.03901C1.87113 4.68178 2.06172 4.35141 2.37109 4.1728L7.5 1.21088ZM2.87109 5.03901V10.9609L8 13.9228L13.1289 10.9609V5.03901L8 2.07709L2.87109 5.03901Z" fill="#101023"/>
<path d="M8 4.5C8.25244 4.5 8.46775 4.68252 8.50928 4.93152L8.82373 6.81653C8.85446 7.00092 8.99908 7.14554 9.18347 7.17627L11.0685 7.49072C11.3175 7.53225 11.5 7.74756 11.5 8C11.5 8.25244 11.3175 8.46775 11.0685 8.50928L9.18347 8.82373C8.99908 8.85446 8.85446 8.99908 8.82373 9.18347L8.50928 11.0685C8.46775 11.3175 8.25244 11.5 8 11.5C7.74756 11.5 7.53225 11.3175 7.49072 11.0685L7.17627 9.18347C7.14554 8.99908 7.00092 8.85446 6.81653 8.82373L4.93152 8.50928C4.68252 8.46775 4.5 8.25244 4.5 8C4.5 7.74756 4.68252 7.53225 4.93152 7.49072L6.81653 7.17627C7.00092 7.14554 7.14554 7.00092 7.17627 6.81653L7.49072 4.93152C7.53225 4.68252 7.74756 4.5 8 4.5Z" fill="black"/>
</svg>
