<svg width="16" height="16" viewBox="0 0 16 16" fill="none" xmlns="http://www.w3.org/2000/svg">
<path d="M11.6826 3.4082C11.8005 3.98659 12.06 4.52727 12.4355 4.97949C12.7605 5.37051 13.1652 5.68468 13.6191 5.90332C13.9504 5.70979 14.4153 5.59147 14.8818 5.86035C15.1569 6.01912 15.3611 6.24456 15.4512 6.53223C15.5384 6.81171 15.4984 7.08547 15.416 7.30957C15.2609 7.73073 14.9179 8.09877 14.6094 8.33203L14.5371 8.39258L14.5039 8.4209L14.4668 8.44238C13.1223 9.22315 11.6596 9.76653 10.1426 10.0566C9.39574 9.39214 8.88203 8.3777 8.88184 6.95703C8.88184 5.13585 10.1563 3.88869 11.6826 3.4082ZM10.3545 5.17676C10.3013 5.18784 10.2482 5.20422 10.1963 5.22656C9.77974 5.40613 9.58527 5.89046 9.76172 6.30762C9.93848 6.72451 10.4194 6.91745 10.8359 6.73828C11.2525 6.55874 11.447 6.07441 11.2705 5.65723C11.1985 5.48748 11.0757 5.3549 10.9277 5.26953C10.9323 5.27847 10.9384 5.28752 10.9424 5.29688C11.0272 5.49767 10.9594 5.72036 10.791 5.79297C10.6227 5.86521 10.4172 5.76087 10.332 5.56055C10.2746 5.4246 10.2882 5.27905 10.3545 5.17676Z" fill="black"/>
<path opacity="0.5" d="M8.88142 6.95626C8.88142 10.7782 12.5981 11.6607 14.5711 10.6991C14.3478 11.6059 13.5393 12.3728 12.2301 12.6284C12.2059 13.024 12.6524 13.9125 13.0506 14.2655C12.1456 14.6063 11.1078 14.1438 10.5346 13.7786C10.3174 14.0951 10.2209 15.0506 10.2209 15.647C9.53908 15.647 8.65215 14.655 8.4289 14.2777C8.11516 14.4603 7.5661 15.434 7.46353 16C7.12415 15.7884 6.84401 15.4928 6.64971 15.1413C6.45541 14.7898 6.3534 14.3941 6.35336 13.9916C5.96721 14.2655 4.8691 14.941 4.36228 15.1723C4.10886 14.5881 4.21144 13.8638 4.36228 13.1153C4.14507 13.2309 2.56427 13.3769 1.93074 13.2309C2.25052 12.8657 2.67891 12.0441 2.87198 11.6607C1.97395 11.5639 1.12613 11.1947 0.440451 10.6018C0.923137 10.3827 1.40582 10.0662 1.93074 9.53671C1.26102 9.17155 0.241343 8.63598 0 7.69874C0.621458 7.65614 1.38772 7.56485 1.78594 7.38227C1.27912 7.08406 0.440451 6.14682 0.609391 5.01483C1.03174 5.22176 1.91264 5.37999 2.34103 5.30087C1.96695 4.47318 1.71957 3.66984 2.08762 2.56219C2.51022 2.9944 3.01508 3.33597 3.57188 3.56638C3.48741 2.75086 3.86149 1.24762 4.36228 0.845949C4.57345 1.30848 5.09837 2.06314 5.44832 2.24572C5.53882 1.63712 6.32319 0.194751 7.01705 0C7.01705 0.499049 7.28856 1.39977 7.5118 1.67364C8.03069 1.1259 9.77439 0.231267 11.1561 0.541651C10.7277 0.992012 10.414 1.15025 10.2993 1.51541C11.3492 1.51541 13.0748 1.85622 14.5711 3.44466C12.2301 2.56219 8.88142 4.00456 8.88142 6.95626Z" fill="black"/>
</svg>
