<svg width="16" height="16" viewBox="0 0 16 16" fill="none" xmlns="http://www.w3.org/2000/svg">
<path fill-rule="evenodd" clip-rule="evenodd" d="M11.2109 3.58496C11.3518 4.21463 11.6382 4.80216 12.0498 5.29785C12.4854 5.82233 13.0455 6.22786 13.6777 6.47559C13.9191 6.25649 14.294 6.09822 14.6318 6.29297C15.3916 6.7312 14.824 7.55271 14.2871 7.94824L14.2148 8.00879C12.8257 8.81549 11.307 9.36004 9.73242 9.62207C9.62539 9.48845 9.52636 9.34521 9.43652 9.19141C10.8304 9.01215 12.263 8.65903 13.5635 7.875C13.666 7.81414 13.7447 7.72308 13.793 7.63184C13.825 7.57269 13.8442 7.5075 13.8506 7.44043C13.857 7.3733 13.8504 7.30547 13.8301 7.24121C13.8098 7.17693 13.7761 7.11745 13.7324 7.06641C13.6887 7.01546 13.6352 6.97388 13.5752 6.94434C13.5247 6.92512 13.4745 6.90501 13.4248 6.88379C12.7351 6.60006 12.1263 6.14665 11.6543 5.56543C11.2358 5.05004 10.9364 4.44788 10.7764 3.80371C10.9168 3.72326 11.0619 3.65012 11.2109 3.58496Z" fill="black"/>
<path fill-rule="evenodd" clip-rule="evenodd" d="M10.3546 5.17676C10.2881 5.27915 10.2744 5.42438 10.3321 5.56055C10.4172 5.76114 10.6227 5.86537 10.7911 5.79297C10.9596 5.72035 11.0275 5.49779 10.9425 5.29688C10.9384 5.28727 10.9324 5.27868 10.9278 5.26953C11.0759 5.35495 11.1985 5.48725 11.2706 5.65723C11.4473 6.07451 11.2528 6.55872 10.836 6.73828C10.4193 6.9176 9.93846 6.72478 9.76179 6.30762C9.58508 5.89033 9.7796 5.40613 10.1964 5.22656C10.2483 5.2042 10.3013 5.18785 10.3546 5.17676Z" fill="black"/>
<path opacity="0.5" d="M8.88142 6.95626C8.88142 10.7782 12.5981 11.6607 14.5711 10.6991C14.3478 11.6059 13.5393 12.3728 12.2301 12.6284C12.2059 13.024 12.6524 13.9125 13.0506 14.2655C12.1456 14.6063 11.1078 14.1438 10.5346 13.7786C10.3174 14.0951 10.2209 15.0506 10.2209 15.647C9.53908 15.647 8.65215 14.655 8.4289 14.2777C8.11516 14.4603 7.5661 15.434 7.46353 16C7.12415 15.7884 6.84401 15.4928 6.64971 15.1413C6.45541 14.7898 6.3534 14.3941 6.35336 13.9916C5.96721 14.2655 4.8691 14.941 4.36228 15.1723C4.10886 14.5881 4.21144 13.8638 4.36228 13.1153C4.14507 13.2309 2.56427 13.3769 1.93074 13.2309C2.25052 12.8657 2.67891 12.0441 2.87198 11.6607C1.97395 11.5639 1.12613 11.1947 0.440451 10.6018C0.923137 10.3827 1.40582 10.0662 1.93074 9.53671C1.26102 9.17155 0.241343 8.63598 0 7.69874C0.621458 7.65614 1.38772 7.56485 1.78594 7.38227C1.27912 7.08406 0.440451 6.14682 0.609391 5.01483C1.03174 5.22176 1.91264 5.37999 2.34103 5.30087C1.96695 4.47318 1.71957 3.66984 2.08762 2.56219C2.51022 2.9944 3.01508 3.33597 3.57188 3.56638C3.48741 2.75086 3.86149 1.24762 4.36228 0.845949C4.57345 1.30848 5.09837 2.06314 5.44832 2.24572C5.53882 1.63712 6.32319 0.194751 7.01705 0C7.01705 0.499049 7.28856 1.39977 7.5118 1.67364C8.03069 1.1259 9.77439 0.231267 11.1561 0.541651C10.7277 0.992012 10.414 1.15025 10.2993 1.51541C11.3492 1.51541 13.0748 1.85622 14.5711 3.44466C12.2301 2.56219 8.88142 4.00456 8.88142 6.95626Z" fill="black"/>
</svg>
