<svg width="16" height="16" viewBox="0 0 16 16" fill="none" xmlns="http://www.w3.org/2000/svg">
<path fill-rule="evenodd" clip-rule="evenodd" d="M11.1862 3.47511C11.1503 3.21304 11.0462 2.96525 10.8846 2.75696C10.7337 2.57438 10.5406 2.47701 10.3174 2.44658C9.90711 2.38572 9.43046 2.58656 8.97794 2.8726C8.00492 3.53896 7.1278 4.33768 6.37144 5.24612L6.2749 5.36176L8.27202 9.78625L8.43492 9.77408C10.4701 9.63941 12.4475 9.03561 14.2151 8.00915L14.2875 7.94829C14.8245 7.5527 15.3916 6.7311 14.6314 6.29291C14.2935 6.09816 13.9194 6.25639 13.6781 6.47549C13.0457 6.22777 12.4856 5.82281 12.05 5.29825C11.6143 4.77368 11.3172 4.14654 11.1862 3.47511ZM13.4247 6.88325C12.7348 6.59946 12.1262 6.14629 11.6541 5.5649C11.1821 4.98351 10.8615 4.29235 10.7216 3.55422C10.6998 3.3779 10.6333 3.21022 10.5286 3.06735C10.4613 2.9827 10.3638 2.92807 10.2571 2.9152C10.0157 2.88477 9.65974 3.0004 9.21929 3.27427C8.40475 3.77941 7.46955 4.69839 6.82396 5.44087L8.56163 9.2872C10.2209 9.14723 11.9887 8.82467 13.5635 7.87526C13.666 7.8144 13.7445 7.72311 13.7927 7.63182C13.8248 7.57261 13.8446 7.50746 13.851 7.44031C13.8574 7.37315 13.8502 7.30539 13.8299 7.24111C13.8096 7.17683 13.7766 7.11737 13.7329 7.06632C13.6892 7.01527 13.6356 6.9737 13.5755 6.94411C13.5249 6.92483 13.4746 6.90454 13.4247 6.88325Z" fill="black"/>
<path d="M10.8364 6.73805C11.2532 6.55849 11.4478 6.07464 11.2711 5.65736C11.0944 5.24007 10.6133 5.04736 10.1965 5.22693C9.77974 5.4065 9.58515 5.89034 9.76186 6.30762C9.93857 6.72491 10.4197 6.91762 10.8364 6.73805Z" fill="black"/>
<path d="M8.88142 6.95626C8.88142 10.7782 12.5981 11.6607 14.5711 10.6991C14.3478 11.6059 13.5393 12.3728 12.2301 12.6284C12.2059 13.024 12.6524 13.9125 13.0506 14.2655C12.1456 14.6063 11.1078 14.1438 10.5346 13.7786C10.3174 14.0951 10.2209 15.0506 10.2209 15.647C9.53908 15.647 8.65215 14.655 8.4289 14.2777C8.11516 14.4603 7.5661 15.434 7.46353 16C7.12415 15.7884 6.84401 15.4928 6.64971 15.1413C6.45541 14.7898 6.3534 14.3941 6.35336 13.9916C5.96721 14.2655 4.8691 14.941 4.36228 15.1723C4.10886 14.5881 4.21144 13.8638 4.36228 13.1153C4.14507 13.2309 2.56427 13.3769 1.93074 13.2309C2.25052 12.8657 2.67891 12.0441 2.87198 11.6607C1.97395 11.5639 1.12613 11.1947 0.440451 10.6018C0.923137 10.3827 1.40582 10.0662 1.93074 9.53671C1.26102 9.17155 0.241343 8.63598 0 7.69874C0.621458 7.65614 1.38772 7.56485 1.78594 7.38227C1.27912 7.08406 0.440451 6.14682 0.609391 5.01483C1.03174 5.22176 1.91264 5.37999 2.34103 5.30087C1.96695 4.47318 1.71957 3.66984 2.08762 2.56219C2.51022 2.9944 3.01508 3.33597 3.57188 3.56638C3.48741 2.75086 3.86149 1.24762 4.36228 0.845949C4.57345 1.30848 5.09837 2.06314 5.44832 2.24572C5.53882 1.63712 6.32319 0.194751 7.01705 0C7.01705 0.499049 7.28856 1.39977 7.5118 1.67364C8.03069 1.1259 9.77439 0.231267 11.1561 0.541651C10.7277 0.992012 10.414 1.15025 10.2993 1.51541C11.3492 1.51541 13.0748 1.85622 14.5711 3.44466C12.2301 2.56219 8.88142 4.00456 8.88142 6.95626Z" fill="black"/>
</svg>
