<svg width="16" height="16" viewBox="0 0 16 16" fill="none" xmlns="http://www.w3.org/2000/svg">
<path d="M9.40297 1.26579C9.80847 1.35027 10.0687 1.74749 9.98424 2.15299L7.48424 14.153C7.39975 14.5585 7.00254 14.8187 6.59703 14.7343C6.19153 14.6498 5.93128 14.2526 6.01576 13.8471L8.51576 1.84706C8.60024 1.44156 8.99746 1.18131 9.40297 1.26579ZM4.7996 4.23969C5.08145 4.54322 5.06387 5.01777 4.76034 5.29962L1.85221 8.00003L4.76034 10.7004C5.06387 10.9823 5.08145 11.4568 4.7996 11.7604C4.51774 12.0639 4.04319 12.0815 3.73966 11.7996L0.239662 8.54962C0.0868364 8.40771 0 8.20858 0 8.00003C0 7.79148 0.0868364 7.59234 0.239662 7.45043L3.73966 4.20043C4.04319 3.91858 4.51774 3.93616 4.7996 4.23969ZM11.2004 4.23969C11.4823 3.93616 11.9568 3.91858 12.2603 4.20043L15.7603 7.45043C15.9132 7.59234 16 7.79148 16 8.00003C16 8.20858 15.9132 8.40771 15.7603 8.54962L12.2603 11.7996C11.9568 12.0815 11.4823 12.0639 11.2004 11.7604C10.9186 11.4568 10.9361 10.9823 11.2397 10.7004L14.1478 8.00003L11.2397 5.29962C10.9361 5.01777 10.9186 4.54322 11.2004 4.23969Z" fill="black"/>
</svg>
