<svg width="16" height="16" viewBox="0 0 16 16" fill="none" xmlns="http://www.w3.org/2000/svg">
<path opacity="0.2" fill-rule="evenodd" clip-rule="evenodd" d="M8 1C9.32665 1 10.4361 1.06835 11.347 1.26831C12.2653 1.46991 13.0235 1.81423 13.6046 2.39539C14.1858 2.97654 14.5301 3.73473 14.7317 4.65295C14.9317 5.56388 15 6.67335 15 8C15 9.32665 14.9317 10.4361 14.7317 11.347C14.5301 12.2653 14.1858 13.0235 13.6046 13.6046C13.0235 14.1858 12.2653 14.5301 11.347 14.7317C10.4361 14.9317 9.32665 15 8 15C6.67335 15 5.56388 14.9317 4.65295 14.7317C3.73473 14.5301 2.97654 14.1858 2.39539 13.6046C1.81423 13.0235 1.46991 12.2653 1.26831 11.347C1.06835 10.4361 1 9.32665 1 8C1 6.67335 1.06835 5.56388 1.26831 4.65295C1.46991 3.73473 1.81423 2.97654 2.39539 2.39539C2.97654 1.81423 3.73473 1.46991 4.65295 1.26831C5.56388 1.06835 6.67335 1 8 1Z" fill="black"/>
<path d="M6.18934 5.25198C6.46449 4.94243 6.93834 4.91441 7.24793 5.18948C7.55747 5.46463 7.5855 5.93848 7.31043 6.24807L5.75379 8.00002L7.31043 9.75198C7.58551 10.0616 7.55748 10.5354 7.24793 10.8106C6.93834 11.0856 6.46449 11.0576 6.18934 10.7481L4.18934 8.49807C3.93689 8.21394 3.93689 7.7861 4.18934 7.50198L6.18934 5.25198Z" fill="black"/>
<path d="M8.75184 5.18948C9.06142 4.91441 9.53528 4.94243 9.81043 5.25198L11.8104 7.50198C12.0629 7.7861 12.0629 8.21394 11.8104 8.49807L9.81043 10.7481C9.53527 11.0576 9.06142 11.0856 8.75184 10.8106C8.44229 10.5354 8.41426 10.0616 8.68934 9.75198L10.246 8.00002L8.68934 6.24807C8.41427 5.93848 8.44229 5.46463 8.75184 5.18948Z" fill="black"/>
</svg>
