<svg width="16" height="16" viewBox="0 0 16 16" fill="none" xmlns="http://www.w3.org/2000/svg">
<path d="M15.848 6.53556C15.8 6.50209 15.4 6.17573 14.536 6.17573C14.312 6.17573 14.088 6.20084 13.864 6.24268C13.696 5.07113 12.76 4.47699 12.72 4.45188L12.488 4.30962L12.344 4.53556C12.152 4.83682 12 5.17992 11.936 5.53138C11.776 6.20084 11.872 6.83682 12.2 7.38075C11.808 7.61506 11.168 7.67364 11.032 7.67364H0.496C0.224 7.67364 0 7.90795 0 8.20084C0 9.16318 0.144 10.1255 0.464 11.0293C0.824 12.0251 1.368 12.7615 2.064 13.2134C2.848 13.7155 4.136 14 5.6 14C6.232 14 6.888 13.9414 7.536 13.8159C8.432 13.6485 9.296 13.3222 10.088 12.8452C10.7439 12.4528 11.331 11.9463 11.824 11.3473C12.664 10.3682 13.16 9.25523 13.52 8.29289H13.672C14.584 8.29289 15.152 7.90795 15.464 7.58159C15.672 7.38075 15.824 7.13808 15.936 6.85356L16 6.65272L15.848 6.53556ZM1.48 7.36402H2.888C2.952 7.36402 3.016 7.30544 3.016 7.23013V5.90795C3.016 5.841 2.96 5.77406 2.888 5.77406H1.48C1.408 5.77406 1.352 5.83264 1.352 5.90795V7.23013C1.36 7.30544 1.408 7.36402 1.48 7.36402ZM3.424 7.36402H4.832C4.896 7.36402 4.96 7.30544 4.96 7.23013V5.90795C4.96 5.841 4.904 5.77406 4.832 5.77406H3.424C3.352 5.77406 3.296 5.83264 3.296 5.90795V7.23013C3.304 7.30544 3.352 7.36402 3.424 7.36402ZM5.4 7.36402H6.8C6.88 7.36402 6.936 7.30544 6.936 7.23013V5.90795C6.936 5.841 6.888 5.77406 6.8 5.77406H5.4C5.336 5.77406 5.28 5.83264 5.28 5.90795V7.23013C5.28 7.30544 5.328 7.36402 5.4 7.36402ZM7.352 7.36402H8.768C8.832 7.36402 8.888 7.30544 8.888 7.23013V5.90795C8.888 5.841 8.84 5.77406 8.768 5.77406H7.352C7.288 5.77406 7.232 5.83264 7.232 5.90795V7.23013C7.232 7.30544 7.288 7.36402 7.352 7.36402ZM3.424 5.48954H4.832C4.896 5.48954 4.96 5.41423 4.96 5.33891V4.0251C4.96 3.94979 4.904 3.89121 4.832 3.89121H3.424C3.352 3.89121 3.296 3.94142 3.296 4.0251V5.33891C3.304 5.41423 3.352 5.48954 3.424 5.48954ZM5.4 5.48954H6.8C6.88 5.48954 6.936 5.41423 6.936 5.33891V4.0251C6.936 3.94979 6.888 3.89121 6.8 3.89121H5.4C5.336 3.89121 5.28 3.94142 5.28 4.0251V5.33891C5.28 5.41423 5.328 5.48954 5.4 5.48954ZM7.352 5.48954H8.768C8.832 5.48954 8.888 5.41423 8.888 5.33891V4.0251C8.888 3.94979 8.832 3.89121 8.768 3.89121H7.352C7.288 3.89121 7.232 3.94142 7.232 4.0251V5.33891C7.232 5.41423 7.288 5.48954 7.352 5.48954ZM7.352 3.58159H8.768C8.832 3.58159 8.888 3.52301 8.888 3.4477V2.14226C8.888 2.05858 8.832 2 8.768 2H7.352C7.288 2 7.232 2.05021 7.232 2.14226V3.4477C7.232 3.51464 7.288 3.58159 7.352 3.58159ZM9.32 7.36402H10.728C10.8 7.36402 10.856 7.30544 10.856 7.23013V5.90795C10.856 5.841 10.8 5.77406 10.728 5.77406H9.32C9.256 5.77406 9.2 5.83264 9.2 5.90795V7.23013C9.2 7.30544 9.256 7.36402 9.32 7.36402Z" fill="black"/>
</svg>
