<svg width="16" height="16" viewBox="0 0 16 16" fill="none" xmlns="http://www.w3.org/2000/svg">
<path fill-rule="evenodd" clip-rule="evenodd" d="M8 1C11.866 1 15 4.13401 15 8C15 11.866 11.866 15 8 15C4.13401 15 1 11.866 1 8C1 4.13401 4.13401 1 8 1ZM8.24219 4.14453C8.14559 3.95195 7.85441 3.95195 7.75781 4.14453L6.73535 6.19043C6.69737 6.26643 6.62152 6.32033 6.5332 6.33301L4.22754 6.66406C4.01215 6.69522 3.92392 6.9422 4.07617 7.08887L5.76172 8.71191C5.82108 8.76913 5.84767 8.84983 5.83398 8.92871L5.43848 11.207C5.40255 11.4145 5.63726 11.5695 5.83301 11.4678L7.87012 10.4092C7.9508 10.3673 8.0492 10.3673 8.12988 10.4092L10.167 11.4678C10.3627 11.5695 10.5975 11.4145 10.5615 11.207L10.166 8.92871C10.1523 8.84983 10.1789 8.76913 10.2383 8.71191L11.9238 7.08887C12.0761 6.9422 11.9879 6.69522 11.7725 6.66406L9.4668 6.33301C9.37848 6.32033 9.30263 6.26643 9.26465 6.19043L8.24219 4.14453Z" fill="black"/>
</svg>
