<svg width="16" height="16" viewBox="0 0 16 16" fill="none" xmlns="http://www.w3.org/2000/svg">
<path opacity="0.5" d="M11.1617 6.09557L8.12294 4.34799C8.08556 4.32646 8.04314 4.31512 7.99996 4.31512C7.95678 4.31512 7.91436 4.32646 7.87698 4.34799L4.83819 6.09557C4.80081 6.11704 4.76976 6.14792 4.74815 6.18512C4.72655 6.22232 4.71514 6.26453 4.71509 6.3075V9.80268C4.71509 9.89005 4.7621 9.97092 4.83819 10.0148L7.87698 11.7624C7.95307 11.8061 8.04661 11.8061 8.12294 11.7624L11.1617 10.0148C11.2378 9.97116 11.2846 9.8903 11.2846 9.80268V6.3075C11.2846 6.21988 11.2378 6.13926 11.1617 6.09533V6.09557Z" fill="black"/>
<path d="M0.0987445 7.68741L3.72978 1.39538C3.86161 1.16776 4.10539 1 4.36904 1H11.6309C11.8948 1 12.1383 1.16776 12.2704 1.39538L15.9012 7.67366C15.9659 7.78666 16 7.91453 16 8.04465C16 8.17478 15.9659 8.30265 15.9012 8.41566L12.2704 14.6563C12.1383 14.8837 11.8948 15 11.6309 15H4.36904C4.10539 15 3.86161 14.8873 3.72978 14.6597L0.0989868 8.4089C0.0341833 8.29959 0 8.17498 0 8.04803C0 7.92109 0.0341833 7.79648 0.0989868 7.68717L0.0987445 7.68741ZM3.1053 10.7129C3.1053 10.8056 3.16128 10.891 3.24173 10.9373L7.86679 13.5952C7.94725 13.6415 8.04806 13.6415 8.12851 13.5952L12.757 10.9373C12.8374 10.891 12.8936 10.8056 12.8936 10.7129V5.39697C12.8936 5.30452 12.8381 5.21883 12.7579 5.17248L8.13263 2.51514C8.09284 2.4924 8.04777 2.48043 8.00189 2.48043C7.95602 2.48043 7.91095 2.4924 7.87116 2.51514L3.24222 5.17272C3.16176 5.21907 3.10506 5.30476 3.10506 5.39721V10.7131L3.1053 10.7129Z" fill="black"/>
</svg>
