<svg width="16" height="16" viewBox="0 0 16 16" fill="none" xmlns="http://www.w3.org/2000/svg">
<path d="M7.24976 3C7.66397 3 7.99976 3.33579 7.99976 3.75V8H12.2498C12.664 8 12.9998 8.33579 12.9998 8.75V12.5C12.9998 13.3284 12.3282 14 11.4998 14H3.49976C2.67144 13.9999 1.99976 13.3283 1.99976 12.5V4.5C1.99976 3.67165 2.67144 3.00013 3.49976 3H7.24976ZM2.99976 12.5C2.99976 12.7761 3.22373 12.9999 3.49976 13H6.99976V9H2.99976V12.5ZM7.99976 13H11.4998C11.7759 13 11.9998 12.7761 11.9998 12.5V9H7.99976V13ZM3.49976 4C3.22373 4.00013 2.99976 4.22394 2.99976 4.5V8H6.99976V4H3.49976ZM13.4998 1C14.3282 1 14.9998 1.67157 14.9998 2.5V6.25C14.9998 6.66421 14.664 7 14.2498 7H9.74976C9.33565 6.99987 8.99976 6.66413 8.99976 6.25V1.75C8.99976 1.33587 9.33565 1.00013 9.74976 1H13.4998ZM9.99976 6H13.9998V2.5C13.9998 2.22386 13.7759 2 13.4998 2H9.99976V6Z" fill="black"/>
</svg>
