<svg width="16" height="16" viewBox="0 0 16 16" fill="none" xmlns="http://www.w3.org/2000/svg">
<path fill-rule="evenodd" clip-rule="evenodd" d="M9.50049 1.00024C9.63296 1.00034 9.76032 1.05305 9.854 1.14673L13.854 5.14673C13.9476 5.24047 14.0005 5.36778 14.0005 5.50024V12.5002C14.0004 13.8807 12.8809 15 11.5005 15.0002H4.50049C3.11986 15.0002 2.00062 13.8808 2.00049 12.5002V3.50024C2.00049 2.11953 3.11978 1.00024 4.50049 1.00024H9.50049ZM4.50049 2.00024C3.67206 2.00024 3.00049 2.67182 3.00049 3.50024V12.5002C3.00062 13.3286 3.67214 14.0002 4.50049 14.0002H11.5005C12.3287 14 13.0004 13.3284 13.0005 12.5002V6.00024H11.0005C9.896 6.00024 9.00062 5.1047 9.00049 4.00024V2.00024H4.50049Z" fill="black"/>
</svg>
