<svg width="16" height="16" viewBox="0 0 16 16" fill="none" xmlns="http://www.w3.org/2000/svg">
<path opacity="0.5" fill-rule="evenodd" clip-rule="evenodd" d="M8 4C8 5.65685 9.34315 7 11 7H14V12.5C14 13.8807 12.8807 15 11.5 15H4.5C3.11929 15 2 13.8807 2 12.5V3.5C2 2.11929 3.11929 1 4.5 1H8V4ZM5.5 11C5.22386 11 5 11.2239 5 11.5C5 11.7761 5.22386 12 5.5 12H8.5C8.77614 12 9 11.7761 9 11.5C9 11.2239 8.77614 11 8.5 11H5.5ZM5.5 9C5.22386 9 5 9.22386 5 9.5C5 9.77614 5.22386 10 5.5 10H10.5C10.7761 10 11 9.77614 11 9.5C11 9.22386 10.7761 9 10.5 9H5.5Z" fill="black"/>
<path d="M9.5 1C9.63261 1 9.75975 1.05272 9.85352 1.14648L13.8535 5.14648C13.9473 5.24025 14 5.36739 14 5.5V6H11C9.89543 6 9 5.10457 9 4V1H9.5Z" fill="black"/>
</svg>
