<svg width="16" height="16" viewBox="0 0 16 16" fill="none" xmlns="http://www.w3.org/2000/svg">
<path fill-rule="evenodd" clip-rule="evenodd" d="M4.58496 2C4.94712 2.00012 5.3027 2.09887 5.61328 2.28516L7.40137 3.35742C7.5565 3.45041 7.73418 3.49988 7.91504 3.5H12C13.1044 3.50013 13.9999 4.39557 14 5.5V12C13.9999 13.0353 13.2133 13.8866 12.2051 13.9893C12.1376 13.9961 12.0693 14 12 14H2C1.93108 14 1.86302 13.9961 1.7959 13.9893C1.72844 13.9824 1.66198 13.9724 1.59668 13.959C0.815764 13.7991 0.200946 13.1842 0.0410156 12.4033C0.0276398 12.338 0.0175838 12.2716 0.0107422 12.2041C0.00393697 12.137 0 12.0689 0 12V4C6.59718e-05 2.89557 0.895583 2.00013 2 2H4.58496ZM2 3C1.44787 3.00013 1.00007 3.44785 1 4V6H13V5.5C12.9999 4.94785 12.5521 4.50013 12 4.5H7.91504C7.55288 4.49988 7.1973 4.40113 6.88672 4.21484L5.09863 3.14258C4.9435 3.04959 4.76582 3.00012 4.58496 3H2Z" fill="black"/>
</svg>
