<svg width="16" height="16" viewBox="0 0 16 16" fill="none" xmlns="http://www.w3.org/2000/svg">
<path d="M14.2561 6C15.2609 6 15.9812 6.96832 15.6927 7.93066L14.3001 12.5752C14.0462 13.4209 13.2671 14 12.3841 14H2.46122C1.14393 13.9996 0.186751 12.748 0.531532 11.4766L1.71708 7.10742C1.89444 6.454 2.48826 6.00004 3.16532 6H14.2561Z" fill="black"/>
<path opacity="0.5" d="M4.58496 2C4.94719 2.00008 5.30264 2.09885 5.61328 2.28516L7.40137 3.35742C7.55653 3.45046 7.73413 3.49988 7.91504 3.5H12C12.9317 3.5 13.7123 4.13768 13.9346 5H3.16504C2.03702 5.00028 1.04758 5.75664 0.751953 6.8457L0 9.61621V4C0 2.89551 0.895543 2.00013 2 2H4.58496Z" fill="black"/>
</svg>
