<svg width="16" height="16" viewBox="0 0 16 16" fill="none" xmlns="http://www.w3.org/2000/svg">
<path fill-rule="evenodd" clip-rule="evenodd" d="M4.58594 2C4.948 2.0002 5.30377 2.09889 5.61426 2.28516L7.40234 3.35742C7.55746 3.45031 7.73521 3.49992 7.91602 3.5H12.001C13.1052 3.50036 14.0009 4.39571 14.001 5.5V6H14.2559C15.2606 6 15.9809 6.96832 15.6924 7.93066L14.2998 12.5752C14.0459 13.4209 13.2669 14 12.3838 14H2.00098C0.896448 14 0.00104254 13.1045 0.000976562 12V4C0.00104254 2.89549 0.896448 2 2.00098 2H4.58594ZM2.00098 3C1.44873 3 1.00104 3.44777 1.00098 4V9.92578L1.8125 7.08789C1.99649 6.44417 2.58443 6.00021 3.25391 6H13.001V5.5C13.0009 4.94799 12.5529 4.50036 12.001 4.5H7.91602C7.55391 4.49992 7.19826 4.40104 6.8877 4.21484L5.09961 3.14258C4.94457 3.04962 4.7667 3.0002 4.58594 3H2.00098Z" fill="black"/>
</svg>
