<svg width="16" height="16" viewBox="0 0 16 16" fill="none" xmlns="http://www.w3.org/2000/svg">
<path d="M12.2969 12.9969C10.7109 12.9969 9.61719 12.0125 9.61719 10.5047C9.61719 9.06719 10.6172 8.16094 12.5 8.15312H14.6641V7.31719C14.6641 6.23906 14.0391 5.64531 12.9297 5.64531C11.875 5.64531 11.2734 6.18437 11.1953 7.00469H9.92969C10.0156 5.56719 10.9922 4.52031 12.9766 4.52031C14.7266 4.52031 16 5.47344 16 7.2V12.8641H14.7109V11.8406H14.6719C14.2578 12.5047 13.5078 12.9969 12.2969 12.9969ZM12.6562 11.8797C13.8047 11.8797 14.6641 11.1609 14.6641 10.1375V9.18437H12.6016C11.4766 9.18437 10.9922 9.71562 10.9922 10.4578C10.9922 11.4266 11.7969 11.8797 12.6562 11.8797Z" fill="black"/>
<path d="M1.42188 12.8641H0L3.79688 2H5.1875L8.98438 12.8641H7.54688L6.46875 9.66094H2.5L1.42188 12.8641ZM4.50781 3.60938H4.46875L2.86719 8.55937H6.10156L4.50781 3.60938Z" fill="black"/>
</svg>
