<svg width="16" height="16" viewBox="0 0 16 16" fill="none" xmlns="http://www.w3.org/2000/svg">
<path d="M9.09501 1.05811C8.98705 -0.352702 6.91297 -0.352702 6.80501 1.05811C6.72696 2.07807 5.44933 2.49209 4.78506 1.71268C3.86624 0.634596 2.18828 1.85045 2.93241 3.05511C3.47039 3.92603 2.68077 5.00994 1.68401 4.76879C0.305291 4.43523 -0.335632 6.40252 0.976359 6.94089C1.92488 7.33011 1.92488 8.66989 0.976359 9.05912C-0.335633 9.59748 0.305291 11.5648 1.68401 11.2312C2.68077 10.9901 3.47039 12.074 2.93241 12.9449C2.18828 14.1496 3.86624 15.3654 4.78505 14.2873C5.44933 13.5079 6.72696 13.9219 6.80501 14.9419C6.91297 16.3527 8.98705 16.3527 9.09501 14.9419C9.17306 13.9219 10.4507 13.5079 11.115 14.2873C12.0338 15.3654 13.7117 14.1496 12.9676 12.9449C12.4296 12.074 13.2192 10.9901 14.216 11.2312C15.5947 11.5648 16.2357 9.59748 14.9237 9.05912C13.9751 8.66989 13.9751 7.33011 14.9237 6.94089C16.2357 6.40252 15.5947 4.43523 14.216 4.76879C13.2192 5.00994 12.4296 3.92603 12.9676 3.0551C13.7117 1.85045 12.0338 0.634596 11.115 1.71267C10.4507 2.49209 9.17306 2.07807 9.09501 1.05811ZM7.95 10.987C6.29594 10.987 4.95505 9.64968 4.95505 8.00003C4.95505 6.35038 6.29594 5.01308 7.95 5.01308C9.60407 5.01308 10.945 6.35038 10.945 8.00003C10.945 9.64968 9.60407 10.987 7.95 10.987Z" fill="black"/>
</svg>
