<svg width="16" height="16" viewBox="0 0 16 16" fill="none" xmlns="http://www.w3.org/2000/svg">
<path d="M14.7362 7.37653L8.6236 1.2643C8.53987 1.18051 8.44044 1.11404 8.33101 1.06869C8.22158 1.02334 8.10429 1 7.98583 1C7.86737 1 7.75008 1.02334 7.64065 1.06869C7.53122 1.11404 7.43179 1.18051 7.34806 1.2643L6.07922 2.53376L7.68904 4.1436C7.8783 4.07932 8.08177 4.06929 8.27644 4.11463C8.47111 4.15997 8.64921 4.25888 8.79059 4.40018C8.93275 4.54249 9.032 4.72195 9.07697 4.91802C9.12194 5.11409 9.11081 5.31886 9.04487 5.5089L10.5969 7.06054C10.787 6.99451 10.9919 6.98339 11.188 7.02845C11.3841 7.07351 11.5636 7.17292 11.7058 7.31528C11.8054 7.41489 11.8845 7.53314 11.9384 7.66329C11.9923 7.79344 12.02 7.93294 12.02 8.07381C12.02 8.21469 11.9923 8.35418 11.9384 8.48433C11.8845 8.61448 11.8054 8.73273 11.7058 8.83234C11.5044 9.03353 11.2314 9.14655 10.9467 9.14655C10.662 9.14655 10.389 9.03353 10.1876 8.83234C10.0379 8.68247 9.93601 8.49169 9.89458 8.28402C9.85316 8.07635 9.87409 7.86106 9.95476 7.66526L8.50735 6.21829V10.0268C8.66013 10.1023 8.79272 10.2131 8.89415 10.35C8.99559 10.4869 9.06295 10.646 9.09064 10.8142C9.11834 10.9823 9.10559 11.1546 9.05343 11.3168C9.00128 11.479 8.91123 11.6265 8.79074 11.747C8.69114 11.8466 8.57289 11.9256 8.44274 11.9796C8.31259 12.0335 8.1731 12.0612 8.03222 12.0612C7.89135 12.0612 7.75186 12.0335 7.62171 11.9796C7.49156 11.9256 7.37331 11.8466 7.27371 11.747C7.17406 11.6474 7.09502 11.5291 7.04109 11.399C6.98716 11.2688 6.9594 11.1293 6.9594 10.9884C6.9594 10.8475 6.98716 10.708 7.04109 10.5778C7.09502 10.4477 7.17406 10.3294 7.27371 10.2298C7.37408 10.1292 7.49339 10.0495 7.62474 9.9953V6.15171C7.49393 6.09783 7.37505 6.01863 7.27494 5.91867C7.17482 5.81871 7.09544 5.69995 7.04136 5.56922C6.98728 5.43848 6.95956 5.29836 6.9598 5.15688C6.96003 5.0154 6.98822 4.87537 7.04273 4.74481L5.45546 3.15722L1.26378 7.34789C1.09487 7.51713 1 7.74648 1 7.98559C1 8.22471 1.09487 8.45405 1.26378 8.6233L7.3767 14.7363C7.54594 14.9052 7.77525 15 8.01432 15C8.25339 15 8.48271 14.9052 8.65194 14.7363L14.7362 8.65194C14.9051 8.4827 15 8.25335 15 8.01424C15 7.77512 14.9051 7.54578 14.7362 7.37653Z" fill="black"/>
</svg>
