<svg width="16" height="16" viewBox="0 0 16 16" fill="none" xmlns="http://www.w3.org/2000/svg">
<path opacity="0.2" d="M15 11.5C15 12.8807 13.8807 14 12.5 14H3.5C2.11929 14 1 12.8807 1 11.5V4.5C1 3.11929 2.11929 2 3.5 2H12.5C13.8807 2 15 3.11929 15 4.5V11.5Z" fill="black"/>
<path d="M15 10.5V11.5C15 12.8807 13.8807 14 12.5 14H3.5C2.27514 14 1.25743 13.1189 1.04297 11.9561L4 9L7 11L11 7L15 10.5Z" fill="black"/>
<path d="M8 5.5C8 6.32843 7.32843 7 6.5 7C5.67157 7 5 6.32843 5 5.5C5 4.67157 5.67157 4 6.5 4C7.32843 4 8 4.67157 8 5.5Z" fill="black"/>
</svg>
