<svg width="16" height="16" viewBox="0 0 16 16" fill="none" xmlns="http://www.w3.org/2000/svg">
<path d="M5.5 4C6.32843 4 7 4.67157 7 5.5C7 6.32843 6.32843 7 5.5 7C4.67157 7 4 6.32843 4 5.5C4 4.67157 4.67157 4 5.5 4Z" fill="black"/>
<path fill-rule="evenodd" clip-rule="evenodd" d="M12.5 2C13.8807 2.00002 15 3.1193 15 4.5V11.5C15 12.8807 13.8807 14 12.5 14H3.5C2.11929 14 1 12.8807 1 11.5V4.5C1 3.11929 2.11929 2 3.5 2H12.5ZM3.5 3C2.67157 3 2 3.67157 2 4.5V11.417L4.5 8.5L7 11L10.5 6.5L14 10V4.5C14 3.67158 13.3284 3.00002 12.5 3H3.5Z" fill="black"/>
</svg>
