<svg width="16" height="16" viewBox="0 0 16 16" fill="none" xmlns="http://www.w3.org/2000/svg">
<path opacity="0.2" d="M8 0C1.412 0 0 1.412 0 8C0 14.588 1.412 16 8 16C14.588 16 16 14.588 16 8C16 1.412 14.588 0 8 0Z" fill="black"/>
<path d="M9.10745 11.434H10.0524C10.0884 12.055 10.3314 12.19 11.3304 12.19C12.3204 12.19 12.5365 12.046 12.5365 11.335C12.5365 10.678 12.3204 10.489 11.3304 10.273C9.53945 9.88598 9.15245 9.56198 9.15245 8.40998C9.15245 7.08698 9.53945 6.78998 11.3124 6.78998C12.9774 6.78998 13.3464 7.05098 13.3825 8.21198H12.4285C12.4105 7.77998 12.2034 7.68098 11.3304 7.68098C10.3314 7.68098 10.1065 7.81598 10.1065 8.41898C10.1065 8.94098 10.3314 9.11198 11.3485 9.33698C13.1125 9.71498 13.4995 10.066 13.4995 11.335C13.4995 12.775 13.0944 13.09 11.2585 13.09C9.46745 13.09 9.08045 12.793 9.10745 11.434Z" fill="black"/>
<path d="M4.17897 11.281H5.16897C5.16897 12.037 5.32197 12.199 6.01497 12.199C6.78897 12.199 6.95997 12.019 6.95997 11.182V6.87998H7.94997V11.218C7.94997 12.757 7.60797 13.09 6.04197 13.09C4.48497 13.09 4.15197 12.766 4.17897 11.281Z" fill="black"/>
</svg>
