<svg width="16" height="16" viewBox="0 0 16 16" fill="none" xmlns="http://www.w3.org/2000/svg">
<path d="M8 0C14.588 0 16 1.412 16 8C16 14.588 14.588 16 8 16C1.412 16 0 14.588 0 8C0 1.412 1.412 0 8 0ZM10.6143 6.51367C10.3213 6.51367 10.0527 6.55664 9.80957 6.6416C9.5694 6.72656 9.36129 6.84769 9.18555 7.00586C9.00981 7.16109 8.87402 7.34871 8.77734 7.56836C8.68359 7.78516 8.63672 8.02539 8.63672 8.28906C8.63672 8.55859 8.68457 8.79492 8.78125 8.99707C8.88084 9.19905 9.01769 9.3751 9.19043 9.52441C9.36315 9.67364 9.55979 9.80578 9.7793 9.91992C9.99885 10.0311 10.2317 10.1368 10.4775 10.2363C10.6855 10.3213 10.8555 10.4043 10.9873 10.4863C11.1191 10.5654 11.2207 10.6465 11.291 10.7285C11.3611 10.8104 11.4083 10.9016 11.4316 11.001C11.4579 11.0975 11.4707 11.2092 11.4707 11.335C11.4706 11.4871 11.4443 11.6232 11.3916 11.7432C11.3389 11.8603 11.2558 11.9531 11.1416 12.0205C11.0274 12.0878 10.8777 12.121 10.6934 12.1211C10.5381 12.1211 10.3984 12.1025 10.2754 12.0645C10.1523 12.0234 10.0469 11.96 9.95898 11.875C9.87112 11.7871 9.80566 11.6728 9.76172 11.5322C9.71777 11.3887 9.69531 11.2188 9.69531 11.0225H8.52246C8.52246 11.374 8.5791 11.6807 8.69336 11.9414C8.8076 12.199 8.96495 12.4132 9.16406 12.583C9.36316 12.7527 9.59202 12.88 9.84961 12.9648C10.1102 13.0468 10.384 13.0879 10.6709 13.0879C10.9697 13.0879 11.2412 13.0469 11.4844 12.9648C11.7303 12.8799 11.9396 12.7597 12.1123 12.6045C12.285 12.4493 12.417 12.2635 12.5078 12.0469C12.5986 11.8302 12.6445 11.5897 12.6445 11.3262C12.6445 11.0598 12.6073 10.8222 12.5342 10.6143C12.4609 10.4062 12.3496 10.2197 12.2002 10.0557C12.0537 9.88867 11.8691 9.73926 11.6465 9.60742C11.4239 9.47272 11.1649 9.34957 10.8691 9.23828C10.7082 9.17685 10.5614 9.11416 10.4297 9.0498C10.3009 8.98248 10.1904 8.91204 10.0996 8.83887C10.0089 8.76569 9.93749 8.68449 9.88477 8.59668C9.83503 8.50599 9.80964 8.40508 9.80957 8.29395C9.80957 8.13877 9.83796 8.00093 9.89355 7.88086C9.94918 7.75789 10.0353 7.66112 10.1523 7.59082C10.2695 7.51758 10.4189 7.48047 10.6006 7.48047C10.7939 7.48047 10.9521 7.52344 11.0752 7.6084C11.1981 7.69335 11.2881 7.81162 11.3438 7.96387C11.4023 8.11324 11.4316 8.28523 11.4316 8.47852H12.6045C12.6045 8.10669 12.5242 7.77232 12.3633 7.47656C12.2023 7.18086 11.9734 6.94626 11.6777 6.77344C11.382 6.60065 11.0271 6.51374 10.6143 6.51367ZM3.82812 6.60156V7.58594H5.41504V13H6.58398V7.58594H8.19629V6.60156H3.82812Z" fill="black"/>
</svg>
