<svg width="16" height="14" viewBox="0 0 16 14" fill="none" xmlns="http://www.w3.org/2000/svg">
<g clip-path="url(#clip0_1292_12153)">
<path fill-rule="evenodd" clip-rule="evenodd" d="M11.3095 0.0898438C11.8451 0.0898438 12.3451 0.352694 12.6425 0.790039L15.5018 4.99707C15.9168 5.60761 15.847 6.41912 15.3329 6.95215L9.04871 13.4658C8.41673 14.1209 7.3545 14.1209 6.72254 13.4658L0.438361 6.95117C-0.0753384 6.41822 -0.145252 5.60778 0.269415 4.99707L3.12879 0.790039C3.2751 0.574791 3.47351 0.398434 3.70594 0.276367C3.93839 0.154336 4.1982 0.0898282 4.4618 0.0898438H11.3095ZM11.7802 2.1748C11.6005 1.96543 11.2847 1.9407 11.0751 2.12012L7.90027 4.84082L4.72547 2.12012C4.51581 1.94088 4.19996 1.96531 4.02039 2.1748C3.84119 2.38438 3.86582 2.70027 4.07508 2.87988L6.54871 5H2.40027C2.12434 5.00025 1.90027 5.22401 1.90027 5.5C1.90027 5.77599 2.12434 5.99975 2.40027 6H13.4003C13.6764 6 13.9003 5.77614 13.9003 5.5C13.9003 5.22386 13.6764 5 13.4003 5H9.25184L11.7255 2.87988C11.9351 2.70024 11.9596 2.38447 11.7802 2.1748Z" fill="black"/>
</g>
<defs>
<clipPath id="clip0_1292_12153">
<rect width="16" height="14" fill="white"/>
</clipPath>
</defs>
</svg>
