<svg width="16" height="16" viewBox="0 0 16 16" fill="none" xmlns="http://www.w3.org/2000/svg">
<path d="M7.66886 7.59488H6.01314C4.85414 7.59488 4.10907 8.3241 4.10907 9.45844V10.9169C4.10907 11.0789 4.02628 11.1599 3.86071 11.1599H3.11564C2.37057 11.1599 1.79106 10.8358 1.45992 10.1877C1.21156 9.70151 1.04599 9.21536 1.04599 8.72922C0.963206 7.83795 0.963206 6.94668 1.29435 6.05542C1.54271 5.3262 2.03942 4.75903 2.86728 4.59698H7.66886C7.75164 4.59698 7.91721 4.59698 7.91721 4.51596V4.11084C7.91721 4.11084 7.75164 4.02981 7.66886 4.02981H4.85414C4.60578 4.02981 4.523 3.94879 4.523 3.70571V2.6524C4.523 2.08523 4.77135 1.68011 5.26807 1.51806C5.682 1.35601 6.09593 1.19396 6.50985 1.11294C7.50328 0.950889 8.49671 0.950889 9.49014 1.19396C9.90407 1.27499 10.318 1.43703 10.6491 1.68011C10.9803 2.0042 11.2286 2.3283 11.1459 2.81445V5.73132C11.1459 6.86566 10.4836 7.51385 9.32457 7.51385C8.74507 7.59488 8.16557 7.59488 7.66886 7.59488ZM5.35085 2.73342C5.35085 3.05752 5.59921 3.38162 6.01314 3.38162C6.34428 3.38162 6.67543 3.05752 6.67543 2.73342C6.67543 2.40933 6.34428 2.16625 6.01314 2.08523C5.59921 2.08523 5.35085 2.40933 5.35085 2.73342ZM8.33114 8.40512H9.98686C11.1459 8.40512 11.8909 7.6759 11.8909 6.54156V5.08313C11.8909 4.92108 11.9737 4.84005 12.1393 4.84005H12.8844C13.6294 4.84005 14.2089 5.16415 14.5401 5.81235C14.7884 6.29849 14.954 6.78464 14.954 7.27078C15.0368 8.16205 15.0368 9.05332 14.7056 9.94458C14.4573 10.6738 13.9606 11.241 13.1327 11.403H8.33114C8.24836 11.403 8.08279 11.403 8.08279 11.484V11.8892C8.08279 11.8892 8.24836 11.9702 8.33114 11.9702H11.1459C11.3942 11.9702 11.477 12.0512 11.477 12.2943V13.3476C11.477 13.9148 11.2286 14.3199 10.7319 14.4819C10.318 14.644 9.90407 14.806 9.49014 14.8871C8.49671 15.0491 7.50328 15.0491 6.50985 14.806C6.09593 14.725 5.682 14.563 5.35085 14.3199C5.01971 13.9958 4.77135 13.6717 4.85414 13.1856V10.2687C4.85414 9.13434 5.51643 8.48615 6.67543 8.48615C7.25493 8.40512 7.83443 8.40512 8.33114 8.40512ZM10.6491 13.2666C10.6491 12.9425 10.4008 12.6184 9.98686 12.6184C9.65572 12.6184 9.32457 12.9425 9.32457 13.2666C9.32457 13.5907 9.65572 13.8337 9.98686 13.9148C10.4008 13.9148 10.6491 13.5907 10.6491 13.2666Z" fill="black"/>
</svg>
