<svg width="16" height="14" viewBox="0 0 16 14" fill="none" xmlns="http://www.w3.org/2000/svg">
<g clip-path="url(#clip0_1300_12630)">
<path opacity="0.2" d="M4.5606 0.0901489H11.4089C11.9446 0.0901489 12.4444 0.352734 12.7418 0.790149L15.6013 4.99698C16.0163 5.60751 15.946 6.41883 15.4319 6.95186L9.14843 13.466C8.51643 14.1212 7.45347 14.1212 6.82147 13.466L0.537993 6.95151C0.0239056 6.41849 -0.0463552 5.60751 0.368601 4.99664L3.22773 0.790149C3.37406 0.574798 3.57227 0.398235 3.80478 0.276125C4.03729 0.154015 4.29691 0.0901334 4.5606 0.0901489Z" fill="black"/>
<path d="M8 5.5H2.5M8 5.5H13.5M8 5.5L4.5 2.5M8 5.5L11.5 2.5" stroke="black" stroke-linecap="round" stroke-linejoin="round"/>
</g>
<defs>
<clipPath id="clip0_1300_12630">
<rect width="16" height="14" fill="white"/>
</clipPath>
</defs>
</svg>
