<svg width="16" height="16" viewBox="0 0 16 16" fill="none" xmlns="http://www.w3.org/2000/svg">
<path d="M9.62564 1C15.7795 5.35102 13.789 10.1493 13.789 10.1493C13.789 10.1493 15.5389 12.2035 14.8316 14C14.8316 14 14.1098 12.7417 12.8994 12.7417C11.7328 12.7417 11.0474 14 8.69964 14C3.47176 14 1 9.45948 1 9.45948C5.7102 12.6811 8.92567 10.3994 8.92567 10.3994C6.8039 9.11837 2.29056 2.99359 2.29056 2.99359C6.22059 6.47289 7.91947 7.39009 7.91947 7.39009C6.90597 6.51837 4.06236 2.25831 4.06236 2.25831C6.33725 4.65364 10.8579 7.9965 10.8579 7.9965C12.1411 4.29738 9.62564 1 9.62564 1Z" fill="black"/>
</svg>
