<svg width="16" height="16" viewBox="0 0 16 16" fill="none" xmlns="http://www.w3.org/2000/svg">
<path d="M8 0C14.588 0 16 1.412 16 8C16 14.588 14.588 16 8 16C1.412 16 0 14.588 0 8V1C0 0.447715 0.447715 0 1 0H8ZM4.13281 7.23047C3.82563 7.23047 3.54941 7.28393 3.30469 7.39062C3.05996 7.49737 2.85154 7.65502 2.67969 7.86328C2.51043 8.0716 2.38021 8.32686 2.28906 8.62891C2.19792 8.93099 2.15234 9.27604 2.15234 9.66406V10.6523C2.15234 11.0404 2.19531 11.3854 2.28125 11.6875C2.36979 11.9869 2.49741 12.2396 2.66406 12.4453C2.83331 12.651 3.03912 12.8086 3.28125 12.918C3.52337 13.0247 3.79829 13.0781 4.10547 13.0781C4.50898 13.0781 4.85163 13.0026 5.13281 12.8516C5.41655 12.7005 5.63416 12.4804 5.78516 12.1914C5.93876 11.8998 6.02474 11.5442 6.04297 11.125H5C4.98698 11.4062 4.94919 11.6263 4.88672 11.7852C4.82686 11.9413 4.73425 12.0521 4.60938 12.1172C4.48444 12.1797 4.31626 12.2109 4.10547 12.2109C3.93111 12.2109 3.78511 12.1796 3.66797 12.1172C3.55082 12.0521 3.45702 11.9557 3.38672 11.8281C3.31902 11.6979 3.26953 11.5351 3.23828 11.3398C3.20703 11.1445 3.19141 10.9154 3.19141 10.6523V9.65625C3.19141 9.38281 3.20964 9.14844 3.24609 8.95312C3.28255 8.75784 3.33855 8.59764 3.41406 8.47266C3.48957 8.34512 3.58728 8.25128 3.70703 8.19141C3.82677 8.13159 3.96886 8.10156 4.13281 8.10156C4.3436 8.1016 4.51048 8.13675 4.63281 8.20703C4.75509 8.27736 4.84509 8.39464 4.90234 8.55859C4.95961 8.72004 4.99349 8.93886 5.00391 9.21484H6.04688C6.02084 8.79043 5.93356 8.43097 5.78516 8.13672C5.63676 7.83993 5.42567 7.61458 5.15234 7.46094C4.87898 7.30733 4.53892 7.23051 4.13281 7.23047ZM8.15625 7.23438C7.89583 7.23438 7.65755 7.27214 7.44141 7.34766C7.22786 7.42318 7.04297 7.53125 6.88672 7.67188C6.73047 7.8099 6.60938 7.97656 6.52344 8.17188C6.4401 8.36458 6.39844 8.57812 6.39844 8.8125C6.39844 9.05208 6.44141 9.26172 6.52734 9.44141C6.61589 9.62109 6.73698 9.77734 6.89062 9.91016C7.04427 10.043 7.21875 10.1602 7.41406 10.2617C7.60938 10.3607 7.81641 10.4544 8.03516 10.543C8.22005 10.6185 8.37109 10.6927 8.48828 10.7656C8.60547 10.8359 8.69531 10.9076 8.75781 10.9805C8.82031 11.0534 8.86198 11.1341 8.88281 11.2227C8.90625 11.3086 8.91797 11.4076 8.91797 11.5195C8.91797 11.6549 8.89453 11.776 8.84766 11.8828C8.80078 11.987 8.72656 12.069 8.625 12.1289C8.52344 12.1888 8.39062 12.2188 8.22656 12.2188C8.08854 12.2188 7.96484 12.2018 7.85547 12.168C7.74609 12.1315 7.65234 12.0755 7.57422 12C7.49609 11.9219 7.4375 11.8203 7.39844 11.6953C7.35938 11.5677 7.33984 11.4167 7.33984 11.2422H6.29688C6.29688 11.5547 6.34766 11.8268 6.44922 12.0586C6.55078 12.2878 6.6901 12.4779 6.86719 12.6289C7.04427 12.7799 7.2474 12.8932 7.47656 12.9688C7.70833 13.0417 7.95182 13.0781 8.20703 13.0781C8.47266 13.0781 8.71354 13.0417 8.92969 12.9688C9.14844 12.8932 9.33464 12.7865 9.48828 12.6484C9.64193 12.5104 9.75911 12.3451 9.83984 12.1523C9.92057 11.9596 9.96094 11.7461 9.96094 11.5117C9.96094 11.2747 9.92839 11.0638 9.86328 10.8789C9.79818 10.694 9.69922 10.5286 9.56641 10.3828C9.4362 10.2344 9.27214 10.1016 9.07422 9.98438C8.8763 9.86458 8.64583 9.75521 8.38281 9.65625C8.23958 9.60156 8.10938 9.54557 7.99219 9.48828C7.8776 9.42839 7.77995 9.36589 7.69922 9.30078C7.61849 9.23568 7.55469 9.16406 7.50781 9.08594C7.46354 9.00521 7.44141 8.91536 7.44141 8.81641C7.44141 8.67839 7.46615 8.55599 7.51562 8.44922C7.5651 8.33984 7.64193 8.25391 7.74609 8.19141C7.85026 8.1263 7.98307 8.09375 8.14453 8.09375C8.31641 8.09375 8.45703 8.13151 8.56641 8.20703C8.67578 8.28255 8.75521 8.38802 8.80469 8.52344C8.85677 8.65625 8.88281 8.80859 8.88281 8.98047H9.92578C9.92578 8.64974 9.85417 8.35286 9.71094 8.08984C9.56771 7.82682 9.36458 7.61849 9.10156 7.46484C8.83854 7.3112 8.52344 7.23438 8.15625 7.23438ZM12.1172 7.23438C11.8569 7.23441 11.6184 7.27217 11.4023 7.34766C11.1889 7.42317 11.0038 7.53131 10.8477 7.67188C10.6915 7.80987 10.5703 7.97664 10.4844 8.17188C10.4011 8.36455 10.3594 8.57817 10.3594 8.8125C10.3594 9.05203 10.4024 9.26175 10.4883 9.44141C10.5768 9.62102 10.698 9.77738 10.8516 9.91016C11.0051 10.0429 11.1798 10.1602 11.375 10.2617C11.5702 10.3606 11.7774 10.4545 11.9961 10.543C12.1809 10.6184 12.3321 10.6928 12.4492 10.7656C12.5663 10.8359 12.6563 10.9076 12.7188 10.9805C12.7812 11.0534 12.8229 11.1341 12.8438 11.2227C12.8672 11.3086 12.8789 11.4076 12.8789 11.5195C12.8789 11.6549 12.8555 11.776 12.8086 11.8828C12.7617 11.9869 12.6875 12.069 12.5859 12.1289C12.4844 12.1887 12.3514 12.2188 12.1875 12.2188C12.0496 12.2187 11.9257 12.2018 11.8164 12.168C11.7072 12.1315 11.6132 12.0755 11.5352 12C11.4571 11.9219 11.3984 11.8202 11.3594 11.6953C11.3203 11.5677 11.3008 11.4166 11.3008 11.2422H10.2578C10.2578 11.5546 10.3086 11.8268 10.4102 12.0586C10.5117 12.2877 10.6511 12.4779 10.8281 12.6289C11.0051 12.7799 11.2084 12.8932 11.4375 12.9688C11.6692 13.0416 11.9129 13.0781 12.168 13.0781C12.4335 13.0781 12.6746 13.0416 12.8906 12.9688C13.1093 12.8933 13.2956 12.7864 13.4492 12.6484C13.6028 12.5104 13.7201 12.345 13.8008 12.1523C13.8815 11.9596 13.9219 11.7461 13.9219 11.5117C13.9219 11.2747 13.8893 11.0638 13.8242 10.8789C13.7591 10.694 13.6601 10.5286 13.5273 10.3828C13.3972 10.2344 13.233 10.1015 13.0352 9.98438C12.8373 9.86464 12.6067 9.75517 12.3438 9.65625C12.2006 9.6016 12.0702 9.54554 11.9531 9.48828C11.8386 9.42842 11.7408 9.36584 11.6602 9.30078C11.5795 9.23572 11.5156 9.164 11.4688 9.08594C11.4245 9.00524 11.4023 8.91531 11.4023 8.81641C11.4023 8.67844 11.4271 8.55596 11.4766 8.44922C11.526 8.33992 11.603 8.25389 11.707 8.19141C11.8111 8.12634 11.9442 8.09379 12.1055 8.09375C12.2772 8.09375 12.418 8.13161 12.5273 8.20703C12.6367 8.28253 12.7161 8.38807 12.7656 8.52344C12.8177 8.65625 12.8438 8.80859 12.8438 8.98047H13.8867C13.8867 8.64974 13.8151 8.35286 13.6719 8.08984C13.5286 7.82688 13.3255 7.61846 13.0625 7.46484C12.7995 7.31129 12.4843 7.23438 12.1172 7.23438Z" fill="black"/>
</svg>
