<svg width="16" height="16" viewBox="0 0 16 16" fill="none" xmlns="http://www.w3.org/2000/svg">
<path fill-rule="evenodd" clip-rule="evenodd" d="M3.90106 4.07656C4.89792 3.89934 5.85239 4.01396 6.71139 4.58736C7.27345 4.95225 7.67641 5.45274 7.94153 6.05742C8.00515 6.15124 7.96273 6.2034 7.83548 6.23468C7.16738 6.40148 6.71135 6.52654 6.05386 6.69334C5.89478 6.73504 5.88414 6.74547 5.74627 6.58909C5.5872 6.41186 5.47051 6.29719 5.24781 6.19294C4.57971 5.86976 3.93282 5.96358 3.32835 6.34932C2.60721 6.80804 2.23601 7.48571 2.24662 8.33018C2.25722 9.16422 2.84051 9.85232 3.67829 9.96701C4.39943 10.0608 5.00392 9.81057 5.48115 9.27886C5.57658 9.16419 5.66147 9.03914 5.7675 8.8932H3.72075C3.49807 8.8932 3.44501 8.75765 3.51922 8.58043C3.65708 8.25724 3.91167 7.71507 4.06014 7.444C4.09196 7.38145 4.1662 7.27724 4.32526 7.27724H7.73834C7.89161 6.79986 8.14007 6.34872 8.47178 5.92191C9.24595 4.92106 10.1792 4.39976 11.4412 4.18082C12.5229 3.99316 13.541 4.09738 14.4636 4.71248C15.3014 5.27546 15.821 6.03653 15.9589 7.03737C16.1392 8.44482 15.7256 9.59167 14.7393 10.5717C14.0394 11.2702 13.1804 11.708 12.1941 11.9061C11.9078 11.9583 11.6214 11.9687 11.3457 12C10.3807 11.9791 9.50047 11.7081 8.75814 11.0826C8.23594 10.6388 7.87632 10.0933 7.69763 9.45836C7.57358 9.70468 7.42537 9.94063 7.2522 10.165C6.48864 11.1555 5.49177 11.7706 4.22977 11.9374C3.19048 12.0729 2.22539 11.8749 1.37698 11.2493C0.592229 10.6655 0.146884 9.89398 0.0302303 8.93484C-0.10763 7.79846 0.231729 6.77676 0.931657 5.88017C1.68461 4.9106 2.68149 4.2955 3.90106 4.07656ZM13.8379 7.444C13.647 6.41188 12.682 5.82807 11.6745 6.05742C10.6883 6.27636 10.052 6.89143 9.81864 7.87141C9.62775 8.68461 10.0308 9.50827 10.7943 9.84189C11.3776 10.0921 11.9609 10.0609 12.5229 9.77937C13.3607 9.35192 13.8167 8.68463 13.8698 7.78803C13.8592 7.6525 13.8591 7.54826 13.8379 7.444Z" fill="black"/>
</svg>
