<svg width="16" height="16" viewBox="0 0 16 16" fill="none" xmlns="http://www.w3.org/2000/svg">
<path opacity="0.2" d="M8 0C1.412 0 0 1.412 0 8C0 14.588 1.412 16 8 16C14.588 16 16 14.588 16 8C16 1.412 14.588 0 8 0Z" fill="black"/>
<path d="M9.10758 11.434H10.0526C10.0886 12.055 10.3316 12.19 11.3306 12.19C12.3206 12.19 12.5366 12.046 12.5366 11.335C12.5366 10.678 12.3206 10.489 11.3306 10.273C9.53958 9.88598 9.15258 9.56198 9.15258 8.40998C9.15258 7.08698 9.53958 6.78998 11.3126 6.78998C12.9776 6.78998 13.3466 7.05098 13.3826 8.21198H12.4286C12.4106 7.77998 12.2036 7.68098 11.3306 7.68098C10.3316 7.68098 10.1066 7.81598 10.1066 8.41898C10.1066 8.94098 10.3316 9.11198 11.3486 9.33698C13.1126 9.71498 13.4996 10.066 13.4996 11.335C13.4996 12.775 13.0946 13.09 11.2586 13.09C9.46758 13.09 9.08058 12.793 9.10758 11.434Z" fill="black"/>
<path d="M5.7631 13V7.77998H4.1521V6.87998H8.3641V7.77998H6.7441V13H5.7631Z" fill="black"/>
</svg>
