<svg width="16" height="16" viewBox="0 0 16 16" fill="none" xmlns="http://www.w3.org/2000/svg">
<path opacity="0.2" d="M8 16C1.412 16 0 14.588 0 8V1C0 0.447715 0.447715 0 1 0H8C14.588 0 16 1.412 16 8C16 14.588 14.588 16 8 16Z" fill="black"/>
<path d="M10.2806 10.782H11.0156C11.0436 11.265 11.2326 11.37 12.0096 11.37C12.7796 11.37 12.9476 11.258 12.9476 10.705C12.9476 10.194 12.7796 10.047 12.0096 9.87898C10.6166 9.57798 10.3156 9.32598 10.3156 8.42998C10.3156 7.40098 10.6166 7.16998 11.9956 7.16998C13.2906 7.16998 13.5776 7.37298 13.6056 8.27598H12.8636C12.8496 7.93998 12.6886 7.86298 12.0096 7.86298C11.2326 7.86298 11.0576 7.96798 11.0576 8.43698C11.0576 8.84298 11.2326 8.97598 12.0236 9.15098C13.3956 9.44498 13.6966 9.71798 13.6966 10.705C13.6966 11.825 13.3816 12.07 11.9536 12.07C10.5606 12.07 10.2596 11.839 10.2806 10.782Z" fill="black"/>
<path d="M6.29338 10.782H7.02838C7.05638 11.265 7.24538 11.37 8.02238 11.37C8.79238 11.37 8.96038 11.258 8.96038 10.705C8.96038 10.194 8.79238 10.047 8.02238 9.87898C6.62938 9.57798 6.32838 9.32598 6.32838 8.42998C6.32838 7.40098 6.62938 7.16998 8.00838 7.16998C9.30338 7.16998 9.59038 7.37298 9.61838 8.27598H8.87638C8.86238 7.93998 8.70138 7.86298 8.02238 7.86298C7.24538 7.86298 7.07038 7.96798 7.07038 8.43698C7.07038 8.84298 7.24538 8.97598 8.03638 9.15098C9.40838 9.44498 9.70938 9.71798 9.70938 10.705C9.70938 11.825 9.39438 12.07 7.96638 12.07C6.57338 12.07 6.27238 11.839 6.29338 10.782Z" fill="black"/>
<path d="M4.99412 10.789H5.75712C5.66612 11.839 5.37912 12.07 4.18212 12.07C2.80312 12.07 2.49512 11.629 2.49512 9.62698C2.49512 7.69498 2.85912 7.16998 4.18212 7.16998C5.35112 7.16998 5.63112 7.41498 5.71512 8.49298H4.95212C4.86812 7.98198 4.72812 7.86998 4.18212 7.86998C3.44012 7.86998 3.27912 8.18498 3.27912 9.61298C3.27912 11.055 3.44012 11.377 4.18212 11.377C4.77012 11.377 4.92412 11.265 4.99412 10.789Z" fill="black"/>
</svg>
