<svg width="16" height="16" viewBox="0 0 16 16" fill="none" xmlns="http://www.w3.org/2000/svg">
<path fill-rule="evenodd" clip-rule="evenodd" d="M8 1C8.07025 1 8.13534 1.03689 8.17148 1.09714L8.52617 1.68828C8.58955 1.69349 8.65266 1.69958 8.7155 1.70664L9.17852 1.19635C9.22572 1.14432 9.29672 1.1208 9.36563 1.13451C9.43453 1.14821 9.49115 1.19715 9.51484 1.26328L9.74675 1.91068C9.80828 1.9283 9.86933 1.94712 9.93008 1.96654L10.4832 1.5569C10.5396 1.51511 10.6139 1.50594 10.6788 1.53281C10.7437 1.55969 10.7896 1.61869 10.8 1.68815L10.9013 2.36901C10.9579 2.39824 11.0139 2.4285 11.0695 2.45938L11.6924 2.16523C11.756 2.13524 11.8305 2.14069 11.8889 2.17969C11.9473 2.21871 11.981 2.28557 11.9776 2.35573L11.944 3.04466C11.9934 3.08402 12.0421 3.12419 12.0902 3.16497L12.7598 2.99766C12.8279 2.98062 12.9001 3.00058 12.9497 3.05026C12.9994 3.09994 13.0194 3.17208 13.0023 3.24023L12.8349 3.90964C12.8757 3.9578 12.9159 4.00648 12.9552 4.05586L13.6443 4.0224C13.7144 4.01899 13.7813 4.05266 13.8203 4.11107C13.8593 4.16947 13.8648 4.24405 13.8348 4.30755L13.5405 4.93034C13.5714 4.98595 13.6016 5.04195 13.6309 5.09857L14.3118 5.2C14.3813 5.21036 14.4403 5.25634 14.4672 5.32122C14.4941 5.38611 14.4849 5.46036 14.4431 5.5168L14.0333 6.06979C14.0528 6.13054 14.0716 6.19159 14.0892 6.25313L14.7367 6.48516C14.8029 6.50885 14.8518 6.56547 14.8655 6.63438C14.8792 6.70328 14.8557 6.77428 14.8036 6.82148L14.2932 7.28438C14.3003 7.34721 14.3064 7.41032 14.3116 7.4737L14.9029 7.82852C14.9631 7.86466 15 7.92975 15 8C15 8.07025 14.9631 8.13534 14.9029 8.17148L14.3116 8.52617C14.3064 8.58955 14.3003 8.65266 14.2932 8.7155L14.8036 9.17852C14.8557 9.22572 14.8792 9.29672 14.8655 9.36563C14.8518 9.43453 14.8029 9.49115 14.7367 9.51484L14.0892 9.74675C14.0716 9.80828 14.0528 9.86933 14.0333 9.93008L14.4431 10.4832C14.4849 10.5396 14.4941 10.6139 14.4672 10.6788C14.4403 10.7437 14.3813 10.7896 14.3118 10.8L13.6309 10.9013C13.6016 10.9579 13.5714 11.0139 13.5405 11.0695L13.8348 11.6924C13.8648 11.756 13.8593 11.8305 13.8203 11.8889C13.7813 11.9473 13.7144 11.981 13.6443 11.9776L12.9552 11.944C12.9159 11.9934 12.8757 12.0421 12.8349 12.0902L13.0023 12.7598C13.0194 12.8279 12.9994 12.9001 12.9497 12.9497C12.9001 12.9994 12.8279 13.0194 12.7598 13.0023L12.0902 12.8349C12.0421 12.8757 11.9934 12.9159 11.944 12.9552L11.9776 13.6443C11.981 13.7144 11.9473 13.7813 11.8889 13.8203C11.8305 13.8593 11.756 13.8648 11.6924 13.8348L11.0695 13.5405C11.0139 13.5714 10.9579 13.6016 10.9013 13.6309L10.8 14.3118C10.7896 14.3813 10.7437 14.4403 10.6788 14.4672C10.6139 14.4941 10.5396 14.4849 10.4832 14.4431L9.93008 14.0333C9.86933 14.0528 9.80828 14.0716 9.74675 14.0892L9.51484 14.7367C9.49115 14.8029 9.43453 14.8518 9.36563 14.8655C9.29672 14.8792 9.22572 14.8557 9.17852 14.8036L8.7155 14.2932C8.65266 14.3003 8.58955 14.3064 8.52617 14.3116L8.17148 14.9029C8.13534 14.9631 8.07025 15 8 15C7.92975 15 7.86466 14.9631 7.82852 14.9029L7.4737 14.3116C7.41032 14.3064 7.34721 14.3003 7.28438 14.2932L6.82148 14.8036C6.77428 14.8557 6.70328 14.8792 6.63438 14.8655C6.56547 14.8518 6.50885 14.8029 6.48516 14.7367L6.25313 14.0892C6.19159 14.0716 6.13054 14.0528 6.06979 14.0333L5.5168 14.4431C5.46036 14.4849 5.38611 14.4941 5.32122 14.4672C5.25634 14.4403 5.21036 14.3813 5.2 14.3118L5.09857 13.6309C5.04195 13.6016 4.98595 13.5714 4.93034 13.5405L4.30755 13.8348C4.24405 13.8648 4.16947 13.8593 4.11107 13.8203C4.05266 13.7813 4.01899 13.7144 4.0224 13.6443L4.05586 12.9552C4.00648 12.9159 3.9578 12.8757 3.90964 12.8349L3.24023 13.0023C3.17208 13.0194 3.09994 12.9994 3.05026 12.9497C3.00058 12.9001 2.98062 12.8279 2.99766 12.7598L3.16497 12.0902C3.12419 12.0421 3.08402 11.9934 3.04466 11.944L2.35573 11.9776C2.28557 11.981 2.21871 11.9473 2.17969 11.8889C2.14069 11.8305 2.13524 11.756 2.16523 11.6924L2.45938 11.0695C2.4285 11.0139 2.39824 10.9579 2.36901 10.9013L1.68815 10.8C1.61869 10.7896 1.55969 10.7437 1.53281 10.6788C1.50594 10.6139 1.51511 10.5396 1.5569 10.4832L1.96654 9.93008C1.94712 9.86933 1.9283 9.80828 1.91068 9.74675L1.26328 9.51484C1.19715 9.49115 1.14821 9.43453 1.13451 9.36563C1.1208 9.29672 1.14432 9.22572 1.19635 9.17852L1.70664 8.7155C1.69958 8.65266 1.69349 8.58955 1.68828 8.52617L1.09714 8.17148C1.03689 8.13534 1 8.07025 1 8C1 7.92975 1.03689 7.86466 1.09714 7.82852L1.68828 7.4737C1.69349 7.41032 1.69957 7.34721 1.70664 7.28438L1.19635 6.82148C1.14432 6.77428 1.1208 6.70328 1.13451 6.63438C1.14821 6.56547 1.19715 6.50885 1.26328 6.48516L1.91068 6.25313C1.9283 6.19159 1.94712 6.13054 1.96654 6.06979L1.5569 5.5168C1.51511 5.46036 1.50594 5.38611 1.53281 5.32122C1.55969 5.25634 1.61869 5.21036 1.68815 5.2L2.36901 5.09857C2.39824 5.04195 2.4285 4.98594 2.45938 4.93034L2.16523 4.30755C2.13524 4.24405 2.14069 4.16947 2.17969 4.11107C2.21871 4.05266 2.28557 4.01899 2.35573 4.0224L3.04466 4.05586C3.08402 4.00648 3.12419 3.9578 3.16497 3.90964L2.99766 3.24023C2.98062 3.17208 3.00058 3.09994 3.05026 3.05026C3.09994 3.00058 3.17208 2.98062 3.24023 2.99766L3.90964 3.16497C3.9578 3.12419 4.00648 3.08402 4.05586 3.04466L4.0224 2.35573C4.01899 2.28557 4.05266 2.21871 4.11107 2.17969C4.16947 2.14069 4.24405 2.13524 4.30755 2.16523L4.93034 2.45938C4.98594 2.4285 5.04195 2.39824 5.09857 2.36901L5.2 1.68815C5.21036 1.61869 5.25634 1.55969 5.32122 1.53281C5.38611 1.50594 5.46036 1.51511 5.5168 1.5569L6.06979 1.96654C6.13054 1.94712 6.19159 1.9283 6.25313 1.91068L6.48516 1.26328C6.50885 1.19715 6.56547 1.14821 6.63438 1.13451C6.70328 1.1208 6.77428 1.14432 6.82148 1.19635L7.28438 1.70664C7.34721 1.69957 7.41032 1.69349 7.4737 1.68828L7.82852 1.09714C7.86466 1.03689 7.92975 1 8 1ZM6.93333 9.46667H8.06667C8.10349 9.46667 8.13333 9.49651 8.13333 9.53333V11C8.13333 11.0368 8.10349 11.0667 8.06667 11.0667H3.88307C4.00313 11.2276 4.13248 11.3811 4.27018 11.5267L5.1944 11.3803C5.4126 11.3458 5.61753 11.4947 5.65208 11.7129L5.79857 12.6383C6.46576 12.9555 7.21207 13.1333 8 13.1333C8.78788 13.1333 9.53414 12.9555 10.2013 12.6383L10.3479 11.7129C10.3825 11.4947 10.5874 11.3458 10.8056 11.3803L11.7297 11.5267C11.8674 11.3811 11.9969 11.2276 12.1169 11.0667H10.0667C9.90407 11.0667 9.77133 11.0235 9.66302 10.9452C9.55562 10.8676 9.4765 10.7586 9.4151 10.6336C9.29378 10.3866 9.23382 10.0592 9.1681 9.74701C9.10109 9.42872 9.02789 9.12384 8.88529 8.89805C8.81483 8.7865 8.72839 8.69612 8.61888 8.63333C8.50952 8.57065 8.37336 8.53333 8.2 8.53333H6.93333V9.46667ZM3.9181 6.3763C4.01839 6.57313 3.94018 6.81402 3.74336 6.91432L2.90885 7.33945C2.88107 7.55572 2.86667 7.77618 2.86667 8C2.86667 8.50969 2.94136 9.00191 3.07969 9.46667H4.66667V6.13333H3.79427L3.9181 6.3763ZM8.28281 3.61615C8.1266 3.77236 7.8734 3.77236 7.71719 3.61615L7.05482 2.95378C5.93923 3.16142 4.95059 3.72975 4.21432 4.53333H9.66667C10.4955 4.53333 11.2196 5.08489 11.479 5.77656C11.6093 6.12383 11.623 6.50811 11.4721 6.87539C11.3328 7.21463 11.0552 7.53363 10.6111 7.79505C10.6307 7.80903 10.6513 7.82502 10.6724 7.84297C10.7474 7.90691 10.8339 7.99804 10.9195 8.10938C11.0906 8.33173 11.2628 8.64102 11.332 8.98698C11.3909 9.28099 11.6888 9.46544 11.9798 9.45013C12.1228 9.4426 12.2597 9.38642 12.3609 9.27409C12.4621 9.16185 12.5333 8.98736 12.5333 8.73333V8.46667C12.5333 8.42985 12.5632 8.4 12.6 8.4H13.118C13.1281 8.268 13.1333 8.13461 13.1333 8C13.1333 7.77617 13.1188 7.55572 13.091 7.33945L12.2566 6.91432C12.0598 6.81402 11.9816 6.57313 12.0819 6.3763L12.5072 5.54141C11.7806 4.21234 10.4835 3.24009 8.94505 2.95378L8.28281 3.61615ZM6.93333 7.06667H8.6C9.11556 7.06667 9.33333 6.81333 9.33333 6.6C9.33333 6.38667 9.11556 6.13333 8.6 6.13333H6.93333V7.06667Z" fill="black"/>
</svg>
