<svg width="16" height="16" viewBox="0 0 16 16" fill="none" xmlns="http://www.w3.org/2000/svg">
<g clip-path="url(#clip0_1200_20095)">
<path d="M9.25488 -0.0390625C10.0039 -0.0390625 10.7239 0.252986 11.2607 0.775391C11.5713 1.07745 11.8058 1.44921 11.9453 1.85938C12.0847 2.26946 12.1255 2.70706 12.0635 3.13574C12.4978 3.07398 12.9404 3.11272 13.3574 3.24902C13.7746 3.38541 14.1557 3.61533 14.4697 3.92188L14.5029 3.95508C14.7658 4.21072 14.9745 4.51672 15.1172 4.85449C15.2599 5.19225 15.333 5.55522 15.333 5.92188C15.333 6.2885 15.2598 6.65151 15.1172 6.98926C14.9745 7.32699 14.7657 7.63305 14.5029 7.88867L8.69824 13.5801C8.68085 13.597 8.66669 13.6173 8.65723 13.6396C8.64773 13.6621 8.64356 13.6865 8.64355 13.7109C8.64355 13.7353 8.64774 13.7597 8.65723 13.7822C8.66668 13.8046 8.68087 13.8248 8.69824 13.8418L9.89062 15.0117C9.94312 15.0628 9.98517 15.1239 10.0137 15.1914C10.0421 15.2588 10.0566 15.3312 10.0566 15.4043C10.0566 15.4776 10.0422 15.5506 10.0137 15.6182C9.98515 15.6857 9.94317 15.7467 9.89062 15.7979C9.78324 15.9022 9.63901 15.9609 9.48926 15.9609C9.33966 15.9608 9.19616 15.9021 9.08887 15.7979L7.89648 14.6289C7.7739 14.5097 7.67596 14.3674 7.60938 14.21C7.54273 14.0523 7.50879 13.8821 7.50879 13.7109C7.50884 13.5399 7.54278 13.3705 7.60938 13.2129C7.67602 13.0552 7.77372 12.9123 7.89648 12.793L13.7002 7.10156C13.8578 6.94812 13.9838 6.76419 14.0693 6.56152C14.1548 6.35893 14.1992 6.14079 14.1992 5.9209C14.1992 5.70118 14.1547 5.48369 14.0693 5.28125C13.9838 5.07858 13.8578 4.89465 13.7002 4.74121L13.667 4.70898C13.3453 4.39593 12.9147 4.22021 12.4658 4.21973C12.0168 4.21935 11.585 4.3944 11.2627 4.70703L6.48145 9.39648L6.48047 9.39746L6.41504 9.46191C6.30771 9.56641 6.16346 9.62491 6.01367 9.625C5.86381 9.625 5.71971 9.56642 5.6123 9.46191C5.55976 9.41081 5.51779 9.34974 5.48926 9.28223C5.46072 9.21467 5.44629 9.1417 5.44629 9.06836C5.44633 8.99519 5.46081 8.92288 5.48926 8.85547C5.51778 8.78794 5.55976 8.7269 5.6123 8.67578L10.4609 3.91992C10.618 3.76649 10.743 3.58322 10.8281 3.38086C10.9133 3.1783 10.9572 2.95998 10.957 2.74023C10.9568 2.5206 10.9127 2.30289 10.8271 2.10059C10.7416 1.89825 10.6164 1.71475 10.459 1.56152C10.1369 1.24807 9.70433 1.07324 9.25488 1.07324C8.80561 1.07335 8.37376 1.24821 8.05176 1.56152L1.63477 7.85547C1.52738 7.95984 1.38315 8.01855 1.2334 8.01855C1.08385 8.01849 0.940309 7.95963 0.833008 7.85547C0.780516 7.80442 0.738494 7.74321 0.709961 7.67578C0.681424 7.60822 0.666016 7.53525 0.666016 7.46191C0.666027 7.3886 0.681435 7.31558 0.709961 7.24805C0.738493 7.18067 0.780554 7.11937 0.833008 7.06836L7.25 0.775391C7.78671 0.253086 8.50599 -0.0389501 9.25488 -0.0390625Z" fill="black"/>
<path d="M9.25586 2.18555C9.40549 2.18567 9.54897 2.24432 9.65625 2.34863C9.70875 2.39969 9.75076 2.46087 9.7793 2.52832C9.80783 2.59588 9.82324 2.66885 9.82324 2.74219C9.82322 2.81538 9.80774 2.88764 9.7793 2.95508C9.75076 3.02264 9.70883 3.08461 9.65625 3.13574L4.91016 7.79004C4.75266 7.94334 4.62754 8.12665 4.54199 8.3291C4.45647 8.53169 4.41215 8.74983 4.41211 8.96973C4.41211 9.18972 4.45643 9.40768 4.54199 9.61035C4.62755 9.81298 4.75254 9.99698 4.91016 10.1504C5.23222 10.4637 5.66395 10.6386 6.11328 10.6387C6.5626 10.6387 6.99433 10.4637 7.31641 10.1504L12.0625 5.49512C12.1699 5.39058 12.314 5.33208 12.4639 5.33203C12.6137 5.33203 12.7578 5.39066 12.8652 5.49512C12.9177 5.54617 12.9597 5.60737 12.9883 5.6748C13.0168 5.74236 13.0312 5.81533 13.0312 5.88867C13.0312 5.96201 13.0168 6.03498 12.9883 6.10254C12.9597 6.16997 12.9177 6.23118 12.8652 6.28223L8.11914 10.9365C7.58225 11.4588 6.86228 11.751 6.11328 11.751C5.36437 11.7509 4.64525 11.4587 4.1084 10.9365C3.84552 10.6809 3.63585 10.3749 3.49316 10.0371C3.3506 9.69944 3.27734 9.33626 3.27734 8.96973C3.27738 8.60313 3.35052 8.24005 3.49316 7.90234C3.63585 7.56456 3.84553 7.25857 4.1084 7.00293L8.85449 2.34863C8.96189 2.2442 9.10605 2.18555 9.25586 2.18555Z" fill="black"/>
</g>
<defs>
<clipPath id="clip0_1200_20095">
<rect width="16" height="16" fill="white"/>
</clipPath>
</defs>
</svg>
