<svg width="16" height="16" viewBox="0 0 16 16" fill="none" xmlns="http://www.w3.org/2000/svg">
<path d="M9.49995 1C9.77609 1 9.99995 1.22386 9.99995 1.5V3H13.4999C13.696 3 13.8739 3.11457 13.955 3.29297C14.0361 3.47162 14.0051 3.68145 13.8759 3.8291L10.4999 7.68652V9.12988C10.771 9.16236 11.1026 9.09964 11.4492 8.96973C11.6706 8.88668 11.867 8.7879 12.0087 8.70996C12.0789 8.67138 12.1348 8.63895 12.1718 8.61621C12.1903 8.60486 12.2042 8.59536 12.2128 8.58984C12.2171 8.58712 12.2216 8.58398 12.2216 8.58398C12.4374 8.44012 12.7286 8.48498 12.8906 8.6875L14.8906 11.1875C15.0367 11.3701 15.0367 11.6299 14.8906 11.8125C14.1277 12.7661 11.7497 14.5 7.99995 14.5C4.25018 14.5 1.8722 12.7661 1.10932 11.8125C0.963234 11.6299 0.963234 11.3701 1.10932 11.1875L3.10932 8.6875C3.27134 8.48498 3.56149 8.44012 3.77729 8.58398C3.77729 8.58398 3.78281 8.58712 3.78706 8.58984C3.79566 8.59536 3.80957 8.60486 3.82807 8.61621C3.86514 8.63895 3.92101 8.67138 3.99116 8.70996C4.13287 8.7879 4.32927 8.88668 4.55073 8.96973C4.89727 9.09964 5.22887 9.16236 5.49995 9.12988V7.68652L2.12397 3.8291C1.99478 3.68145 1.9638 3.47162 2.04487 3.29297C2.12603 3.11457 2.30392 3 2.49995 3H5.99995V1.5C5.99995 1.22386 6.2238 1 6.49995 1H9.49995Z" fill="black"/>
</svg>
