<svg width="16" height="16" viewBox="0 0 16 16" fill="none" xmlns="http://www.w3.org/2000/svg">
<path d="M9.49995 1C9.77609 1 9.99995 1.22386 9.99995 1.5V3H13.4999C13.696 3 13.8739 3.11457 13.955 3.29297C14.0361 3.47162 14.0051 3.68145 13.8759 3.8291L10.4999 7.68652V9.12988C10.771 9.16236 11.1026 9.09964 11.4492 8.96973C11.6706 8.88668 11.867 8.7879 12.0087 8.70996C12.0789 8.67138 12.1348 8.63895 12.1718 8.61621C12.1903 8.60486 12.2042 8.59536 12.2128 8.58984C12.2171 8.58712 12.22 8.58504 12.2216 8.58398H12.2226C12.4384 8.44012 12.7286 8.48498 12.8906 8.6875L14.8906 11.1875C15.0367 11.3701 15.0367 11.6299 14.8906 11.8125C14.1277 12.7661 11.7497 14.5 7.99995 14.5C4.25018 14.5 1.8722 12.7661 1.10932 11.8125C0.963234 11.6299 0.963234 11.3701 1.10932 11.1875L3.10932 8.6875C3.27134 8.48498 3.56149 8.44012 3.77729 8.58398H3.77827C3.77989 8.58504 3.78281 8.58712 3.78706 8.58984C3.79566 8.59536 3.80957 8.60486 3.82807 8.61621C3.86514 8.63895 3.92101 8.67138 3.99116 8.70996C4.13287 8.7879 4.32927 8.88668 4.55073 8.96973C4.89727 9.09964 5.22887 9.16236 5.49995 9.12988V7.68652L2.12397 3.8291C1.99478 3.68145 1.9638 3.47162 2.04487 3.29297C2.12603 3.11457 2.30392 3 2.49995 3H5.99995V1.5C5.99995 1.22386 6.2238 1 6.49995 1H9.49995ZM6.99995 3.5C6.99995 3.77614 6.77609 4 6.49995 4H3.60151L6.37592 7.1709C6.45568 7.26204 6.49995 7.37889 6.49995 7.5V9.5C6.49995 9.68939 6.39297 9.86257 6.22358 9.94727C5.52499 10.2966 4.72297 10.1017 4.19917 9.90527C3.97803 9.82233 3.78143 9.7274 3.62397 9.64551L2.15913 11.4766C2.97866 12.2596 4.96138 13.5 7.99995 13.5C11.0379 13.5 13.0199 12.2597 13.8398 11.4766L12.3749 9.64551C12.2176 9.72731 12.0215 9.82246 11.8007 9.90527C11.2769 10.1017 10.4749 10.2966 9.77631 9.94727C9.60692 9.86257 9.49995 9.68939 9.49995 9.5V7.5C9.49995 7.37889 9.54422 7.26204 9.62397 7.1709L12.3984 4H9.49995C9.2238 4 8.99995 3.77614 8.99995 3.5V2H6.99995V3.5Z" fill="black"/>
</svg>
