<svg width="16" height="16" viewBox="0 0 16 16" fill="none" xmlns="http://www.w3.org/2000/svg">
<path fill-rule="evenodd" clip-rule="evenodd" d="M0 3.75C0 3.33579 0.335786 3 0.75 3H15.25C15.6642 3 16 3.33579 16 3.75C16 4.16421 15.6642 4.5 15.25 4.5H0.75C0.335786 4.5 0 4.16421 0 3.75ZM0 7.75C0 7.33579 0.335786 7 0.75 7H15.25C15.6642 7 16 7.33579 16 7.75C16 8.16421 15.6642 8.5 15.25 8.5H0.75C0.335786 8.5 0 8.16421 0 7.75ZM0 11.75C0 11.3358 0.335786 11 0.75 11H10.25C10.6642 11 11 11.3358 11 11.75C11 12.1642 10.6642 12.5 10.25 12.5H0.75C0.335786 12.5 0 12.1642 0 11.75Z" fill="black"/>
</svg>
