<svg width="15" height="16" viewBox="0 0 15 16" fill="none" xmlns="http://www.w3.org/2000/svg">
<path d="M6 12V13H4.93359V12H6ZM7 10V11H2V10H7ZM13 6V7H10V6H13ZM12 2V3H9V2H12Z" fill="black"/>
<path opacity="0.8" d="M11.5 10V11H8V10H11.5ZM5 6V7H2V6H5ZM10 4V5H9V4H10Z" fill="black"/>
<path opacity="0.6" d="M6 14V15H2V14H6ZM5.5 8V9H2V8H5.5ZM13 4V5H10V4H13ZM4.93359 2V3H2V2H4.93359Z" fill="black"/>
<path opacity="0.4" d="M4.93359 12V13H2V12H4.93359ZM13 8V9H9V8H13ZM5.5 4V5H2V4H5.5ZM9 2V3H4.93359V2H9Z" fill="black"/>
</svg>
