<svg width="16" height="16" viewBox="0 0 16 16" fill="none" xmlns="http://www.w3.org/2000/svg">
<path d="M8 1.95367C9.48151 0.854492 10.954 0.467928 12 1.07184C13.0461 1.67579 13.4466 3.14433 13.2354 4.97711C14.9282 5.71046 15.9997 6.79176 16 7.99957C16 9.20748 14.9282 10.2886 13.2354 11.022C13.4468 12.8552 13.0462 14.3242 12 14.9283C10.9539 15.5322 9.48164 15.1449 8 14.0455C6.51836 15.1449 5.0461 15.5322 4 14.9283C2.95378 14.3242 2.55221 12.8552 2.76367 11.022C1.07126 10.2886 0 9.20729 0 7.99957C0.000263573 6.79196 1.07128 5.71045 2.76367 4.97711C2.55244 3.14439 2.95396 1.67578 4 1.07184C5.046 0.467928 6.5185 0.854499 8 1.95367ZM3.7207 11.5455C3.63103 13.042 4.04826 13.8012 4.5 14.0621C4.95176 14.3229 5.81815 14.305 7.06934 13.4791C7.11406 13.4495 7.15816 13.4175 7.20312 13.3863C6.71652 12.9408 6.23712 12.423 5.78027 11.8423C5.04952 11.737 4.36203 11.581 3.7334 11.3824C3.72885 11.4372 3.72393 11.4917 3.7207 11.5455ZM12.2656 11.3824C11.637 11.5809 10.9495 11.7371 10.2188 11.8423C9.76185 12.4231 9.28256 12.9408 8.7959 13.3863C8.84109 13.4176 8.88572 13.4494 8.93066 13.4791C10.1819 14.305 11.0482 14.3229 11.5 14.0621C11.9517 13.8012 12.369 13.042 12.2793 11.5455C12.2761 11.4917 12.2702 11.4372 12.2656 11.3824ZM8.79004 11.98C8.53013 11.9928 8.26661 11.9996 8 11.9996C7.73306 11.9996 7.46921 11.9928 7.20898 11.98C7.47067 12.2642 7.7355 12.5241 8 12.7584C8.26435 12.5242 8.5285 12.264 8.79004 11.98ZM8 4.99957C7.41939 4.99957 6.85798 5.03396 6.32227 5.09528C6.00164 5.52817 5.69237 5.99728 5.40234 6.49957C5.11221 7.00211 4.86018 7.50525 4.64551 7.99957C4.86023 8.49409 5.1121 8.99683 5.40234 9.49957C5.69232 10.0018 6.00169 10.471 6.32227 10.9039C6.85801 10.9652 7.41935 10.9996 8 10.9996C8.5803 10.9996 9.1413 10.9651 9.67676 10.9039C9.99746 10.4709 10.3076 10.002 10.5977 9.49957C10.8878 8.99695 11.1388 8.49398 11.3535 7.99957C11.1389 7.50537 10.8877 7.00198 10.5977 6.49957C10.3075 5.9971 9.9975 5.5283 9.67676 5.09528C9.14133 5.03403 8.58026 4.99957 8 4.99957ZM4.15723 9.30621C4.04215 9.67458 3.94946 10.0336 3.87891 10.3795C4.2139 10.4914 4.5715 10.5898 4.94824 10.6744C4.80723 10.4556 4.66946 10.2305 4.53613 9.99957C4.40286 9.76873 4.27612 9.53762 4.15723 9.30621ZM11.8418 9.30621C11.723 9.53749 11.5971 9.76887 11.4639 9.99957C11.3305 10.2307 11.1919 10.4555 11.0508 10.6744C11.4275 10.5899 11.7851 10.4913 12.1201 10.3795C12.0495 10.0335 11.9569 9.67461 11.8418 9.30621ZM2.79004 6.06598C1.44934 6.73644 1.00026 7.47791 1 7.99957C1 8.52124 1.44909 9.26254 2.79004 9.93317C2.8378 9.95705 2.88722 9.97923 2.93652 10.0025C3.07893 9.3588 3.2873 8.68507 3.56152 7.99957C3.2872 7.31371 3.07888 6.63967 2.93652 5.99567C2.88703 6.01902 2.83798 6.04201 2.79004 6.06598ZM13.0625 5.99567C12.9201 6.63971 12.7119 7.31367 12.4375 7.99957C12.7118 8.68511 12.9201 9.35876 13.0625 10.0025C13.1121 9.97911 13.1619 9.95718 13.21 9.93317C14.5509 9.26254 15 8.52124 15 7.99957C14.9997 7.47791 14.5507 6.73644 13.21 6.06598C13.1618 6.04188 13.1123 6.01914 13.0625 5.99567ZM8 6.49957C8.82828 6.49957 9.49976 7.17135 9.5 7.99957C9.5 8.828 8.82843 9.49957 8 9.49957C7.17157 9.49957 6.5 8.828 6.5 7.99957C6.50024 7.17135 7.17172 6.49957 8 6.49957ZM4.94824 5.32477C4.57153 5.4093 4.21388 5.50781 3.87891 5.61969C3.94943 5.9656 4.04217 6.32455 4.15723 6.69293C4.27606 6.46168 4.40295 6.23025 4.53613 5.99957C4.66951 5.76858 4.80717 5.54358 4.94824 5.32477ZM11.0508 5.32477C11.1919 5.54372 11.3304 5.76842 11.4639 5.99957C11.597 6.23012 11.723 6.46182 11.8418 6.69293C11.9569 6.32452 12.0496 5.96563 12.1201 5.61969C11.7851 5.50784 11.4275 5.40927 11.0508 5.32477ZM7.06934 2.52106C5.81813 1.69514 4.95176 1.67722 4.5 1.93805C4.04826 2.19893 3.63102 2.95815 3.7207 4.45465C3.72389 4.50781 3.72892 4.5616 3.7334 4.61578C4.36192 4.41727 5.04968 4.26209 5.78027 4.1568C6.23713 3.57614 6.71652 3.05826 7.20312 2.61285C7.1583 2.58178 7.11392 2.55049 7.06934 2.52106ZM11.5 1.93805C11.0482 1.67722 10.1819 1.69513 8.93066 2.52106C8.88586 2.55064 8.84095 2.58162 8.7959 2.61285C9.28256 3.05825 9.76184 3.57612 10.2188 4.1568C10.9494 4.26204 11.6371 4.41732 12.2656 4.61578C12.2701 4.56157 12.2761 4.50784 12.2793 4.45465C12.369 2.95813 11.9517 2.19892 11.5 1.93805ZM8 3.24078C7.7355 3.47502 7.47067 3.735 7.20898 4.0191C7.4692 4.00633 7.73308 3.99957 8 3.99957C8.26659 3.99957 8.53014 4.00637 8.79004 4.0191C8.5285 3.73519 8.26435 3.47488 8 3.24078Z" fill="black"/>
<path d="M8 6.49955C8.82828 6.49955 9.49976 7.17133 9.5 7.99955C9.5 8.82798 8.82843 9.49955 8 9.49955C7.17157 9.49955 6.5 8.82798 6.5 7.99955C6.50024 7.17133 7.17172 6.49955 8 6.49955Z" fill="black"/>
<path fill-rule="evenodd" clip-rule="evenodd" d="M8 1.95365C9.48151 0.854472 10.954 0.467908 12 1.07182C13.0461 1.67577 13.4466 3.14431 13.2354 4.97709C14.9282 5.71044 15.9997 6.79174 16 7.99955C16 9.20746 14.9282 10.2886 13.2354 11.022C13.4468 12.8552 13.0462 14.3242 12 14.9283C10.9539 15.5322 9.48164 15.1449 8 14.0455C6.51836 15.1449 5.0461 15.5322 4 14.9283C2.95378 14.3242 2.55221 12.8552 2.76367 11.022C1.07126 10.2886 0 9.20727 0 7.99955C0.000263573 6.79194 1.07128 5.71043 2.76367 4.97709C2.55244 3.14437 2.95396 1.67576 4 1.07182C5.046 0.467908 6.5185 0.854479 8 1.95365ZM3.7207 11.5455C3.63103 13.0419 4.04826 13.8012 4.5 14.0621C4.95176 14.3229 5.81815 14.3049 7.06934 13.479C7.11406 13.4495 7.15816 13.4174 7.20312 13.3863C6.71652 12.9408 6.23712 12.423 5.78027 11.8423C5.04952 11.737 4.36203 11.5809 3.7334 11.3824C3.72885 11.4372 3.72393 11.4917 3.7207 11.5455ZM12.2656 11.3824C11.637 11.5809 10.9495 11.7371 10.2188 11.8423C9.76185 12.423 9.28256 12.9408 8.7959 13.3863C8.84109 13.4176 8.88572 13.4494 8.93066 13.479C10.1819 14.305 11.0482 14.3229 11.5 14.0621C11.9517 13.8012 12.369 13.042 12.2793 11.5455C12.2761 11.4916 12.2702 11.4372 12.2656 11.3824ZM8.79004 11.98C8.53013 11.9928 8.26661 11.9996 8 11.9996C7.73306 11.9996 7.46921 11.9928 7.20898 11.98C7.47067 12.2642 7.7355 12.5241 8 12.7583C8.26435 12.5242 8.5285 12.264 8.79004 11.98ZM8 4.99955C7.41939 4.99955 6.85798 5.03394 6.32227 5.09526C6.00164 5.52815 5.69237 5.99726 5.40234 6.49955C5.11221 7.00209 4.86018 7.50523 4.64551 7.99955C4.86023 8.49407 5.1121 8.99681 5.40234 9.49955C5.69232 10.0018 6.00169 10.471 6.32227 10.9038C6.85801 10.9652 7.41935 10.9996 8 10.9996C8.5803 10.9996 9.1413 10.9651 9.67676 10.9038C9.99746 10.4708 10.3076 10.002 10.5977 9.49955C10.8878 8.99693 11.1388 8.49396 11.3535 7.99955C11.1389 7.50535 10.8877 7.00196 10.5977 6.49955C10.3075 5.99708 9.9975 5.52828 9.67676 5.09526C9.14133 5.03401 8.58026 4.99955 8 4.99955ZM4.15723 9.30619C4.04215 9.67456 3.94946 10.0335 3.87891 10.3794C4.2139 10.4913 4.5715 10.5898 4.94824 10.6744C4.80723 10.4556 4.66946 10.2305 4.53613 9.99955C4.40286 9.76871 4.27612 9.5376 4.15723 9.30619ZM11.8418 9.30619C11.723 9.53747 11.5971 9.76885 11.4639 9.99955C11.3305 10.2306 11.1919 10.4555 11.0508 10.6744C11.4275 10.5898 11.7851 10.4913 12.1201 10.3794C12.0495 10.0335 11.9569 9.67459 11.8418 9.30619ZM2.79004 6.06596C1.44934 6.73642 1.00026 7.47789 1 7.99955C1 8.52122 1.44909 9.26252 2.79004 9.93315C2.8378 9.95703 2.88722 9.97921 2.93652 10.0025C3.07893 9.35878 3.2873 8.68505 3.56152 7.99955C3.2872 7.31369 3.07888 6.63965 2.93652 5.99565C2.88703 6.019 2.83798 6.04199 2.79004 6.06596ZM13.0625 5.99565C12.9201 6.63969 12.7119 7.31365 12.4375 7.99955C12.7118 8.68509 12.9201 9.35874 13.0625 10.0025C13.1121 9.97909 13.1619 9.95716 13.21 9.93315C14.5509 9.26252 15 8.52122 15 7.99955C14.9997 7.47789 14.5507 6.73642 13.21 6.06596C13.1618 6.04186 13.1123 6.01912 13.0625 5.99565ZM4.94824 5.32475C4.57153 5.40928 4.21388 5.50779 3.87891 5.61967C3.94943 5.96558 4.04217 6.32453 4.15723 6.69291C4.27606 6.46166 4.40295 6.23023 4.53613 5.99955C4.66951 5.76856 4.80717 5.54356 4.94824 5.32475ZM11.0508 5.32475C11.1919 5.5437 11.3304 5.7684 11.4639 5.99955C11.597 6.2301 11.723 6.4618 11.8418 6.69291C11.9569 6.3245 12.0496 5.96561 12.1201 5.61967C11.7851 5.50782 11.4275 5.40925 11.0508 5.32475ZM7.06934 2.52104C5.81813 1.69512 4.95176 1.6772 4.5 1.93803C4.04826 2.19891 3.63102 2.95813 3.7207 4.45463C3.72389 4.50779 3.72892 4.56158 3.7334 4.61576C4.36192 4.41725 5.04968 4.26207 5.78027 4.15678C6.23713 3.57612 6.71652 3.05824 7.20312 2.61283C7.1583 2.58176 7.11392 2.55047 7.06934 2.52104ZM11.5 1.93803C11.0482 1.6772 10.1819 1.69511 8.93066 2.52104C8.88586 2.55062 8.84095 2.5816 8.7959 2.61283C9.28256 3.05823 9.76184 3.5761 10.2188 4.15678C10.9494 4.26202 11.6371 4.4173 12.2656 4.61576C12.2701 4.56155 12.2761 4.50782 12.2793 4.45463C12.369 2.95811 11.9517 2.1989 11.5 1.93803ZM8 3.24076C7.7355 3.475 7.47067 3.73498 7.20898 4.01908C7.4692 4.00631 7.73308 3.99955 8 3.99955C8.26659 3.99955 8.53014 4.00635 8.79004 4.01908C8.5285 3.73517 8.26435 3.47486 8 3.24076Z" fill="black"/>
</svg>
