<svg width="16" height="16" viewBox="0 0 16 16" fill="none" xmlns="http://www.w3.org/2000/svg">
<path d="M2.91992 11.1602C3.98031 11.1602 4.83984 12.0197 4.83984 13.0801C4.8398 14.1404 3.98028 15 2.91992 15C1.8596 15 1.00004 14.1404 1 13.0801C1 12.0197 1.85957 11.1602 2.91992 11.1602ZM1 5.71973C2.21867 5.71973 3.42586 5.96039 4.55176 6.42676C5.67746 6.89312 6.69993 7.57688 7.56152 8.43848C8.42312 9.30007 9.10688 10.3225 9.57324 11.4482C10.0396 12.5741 10.2803 13.7813 10.2803 15H7.55957C7.55957 13.2602 6.86891 11.5916 5.63867 10.3613C4.40843 9.13109 2.73982 8.44043 1 8.44043V5.71973ZM1 1C4.71303 1 8.2739 2.47508 10.8994 5.10059C13.5249 7.7261 15 11.287 15 15H12.2002C12.2002 12.0296 11.0203 9.18049 8.91992 7.08008C6.81951 4.97967 3.97042 3.7998 1 3.7998V1Z" fill="black"/>
</svg>
