<svg width="17" height="16" viewBox="0 0 17 16" fill="none" xmlns="http://www.w3.org/2000/svg">
<path d="M13.7918 8.90626C13.2293 8.90626 12.7293 9.03126 12.323 9.21876C12.1668 8.93751 12.0418 8.68751 12.0105 8.46876C11.9793 8.25001 11.948 8.12501 11.9793 7.84376C12.0105 7.56251 12.1668 7.18751 12.1668 7.15626C12.1668 7.15626 12.1355 7.00001 11.823 7.00001C11.4793 7.00001 11.198 7.06251 11.1668 7.15626L11.0418 7.62501C10.9793 7.90626 10.4168 8.96876 10.073 9.50001C9.94802 9.28126 9.85427 9.09376 9.85427 8.96876C9.82302 8.71876 9.79177 8.59376 9.82302 8.31251C9.85427 8.03126 10.0105 7.68751 10.0105 7.65626C10.0105 7.62501 9.97927 7.46876 9.66677 7.46876C9.32302 7.46876 9.04177 7.53126 9.01052 7.62501L8.88552 8.09376L7.82302 10.4688L7.57302 11.0313C7.51052 11.1563 7.57302 11.0313 7.57302 11.0625L7.47927 11.2188L7.35427 11.375C7.35427 11.375 7.32302 11.1563 7.38552 10.875C7.47927 10.2813 7.76052 9.34376 7.76052 9.28126C7.76052 9.28126 7.82302 9.12501 7.57302 9.03126C7.35427 8.93751 7.29177 9.09376 7.26052 9.09376L7.22927 9.12501C7.22927 9.12501 7.47927 8.06251 6.72927 8.06251C6.29177 8.06251 5.63552 8.59376 5.32302 9.03126L4.26052 9.62501L3.72927 9.90626L3.69802 9.87501C2.79177 8.90626 1.13552 8.25001 1.22927 6.96876C1.22927 6.50001 1.41677 5.28126 4.38552 3.78126C6.85427 2.56251 8.79177 2.90626 9.13552 3.65626C9.63552 4.71876 8.10427 6.68751 5.54177 6.96876C4.57302 7.06251 4.07302 6.68751 3.94802 6.56251C3.82302 6.40626 3.79177 6.40626 3.72927 6.43751C3.66677 6.46876 3.69802 6.59376 3.72927 6.68751C3.82302 6.87501 4.13552 7.21876 4.66677 7.40626C5.13552 7.56251 6.26052 7.65626 7.63552 7.12501C9.16677 6.53126 10.3855 4.87501 10.0418 3.46876C9.66677 2.06251 7.32302 1.59376 5.13552 2.37501C3.79177 2.84376 2.38552 3.59376 1.35427 4.56251C0.135519 5.68751 -0.0519813 6.68751 0.0105187 7.09376C0.323019 8.56251 2.32302 9.53126 3.13552 10.2188L3.04177 10.2813C2.63552 10.5 1.07302 11.3125 0.698019 12.1563C0.260519 13.125 0.760519 13.8125 1.10427 13.9063C2.13552 14.2188 3.22927 13.6875 3.79177 12.8438C4.35427 11.9688 4.29177 10.8438 4.04177 10.3438L4.01052 10.3125L4.35427 10.125L4.91677 9.81251C4.82302 10.0938 4.76052 10.4063 4.72927 10.875C4.66677 11.4063 4.91677 12.125 5.19802 12.4063C5.32302 12.5313 5.47927 12.5313 5.57302 12.5313C5.91677 12.5313 6.07302 12.25 6.26052 11.9063L6.66677 11.0313C6.66677 11.0313 6.41677 12.3125 7.07302 12.3125C7.29177 12.3125 7.54177 12.0313 7.63552 11.875L7.66677 11.8438L7.69802 11.7813L8.32302 10.625L9.10427 8.84376L9.26052 9.46876C9.32302 9.71876 9.47927 9.96876 9.57302 10.2188L9.44802 10.4375L9.19802 10.75C8.88552 11.125 8.47927 11.5625 8.44802 11.6875C8.38552 11.8438 8.38552 11.9375 8.51052 12.0313C8.60427 12.0938 8.76052 12.0938 8.91677 12.0938L9.47927 11.9688L10.0105 11.6875C10.323 11.4688 10.5105 11.125 10.4793 10.6875C10.4793 10.4688 10.3855 10.2188 10.2918 10L10.3855 9.87501C10.8855 9.15626 11.2605 8.34376 11.2605 8.34376L11.4168 9.00001L11.698 9.62501C11.325 9.92154 11.0345 10.3089 10.8543 10.75C10.6668 11.2813 10.7918 11.5 11.073 11.5625C11.198 11.5938 11.3855 11.5313 11.5105 11.4688C11.6668 11.4375 11.8543 11.3438 12.0418 11.2188C12.3543 10.9688 12.6668 10.6563 12.6355 10.2188C12.6355 10.0313 12.573 9.81251 12.5105 9.62501C12.8855 9.46876 13.4168 9.37501 14.0418 9.46876C15.448 9.62501 15.7293 10.5 15.6668 10.8438C15.6043 11.2188 15.323 11.4063 15.2293 11.4688L15.1043 11.5938C15.1355 11.6563 15.1668 11.6563 15.2605 11.6563C15.3543 11.625 15.9793 11.3438 16.0105 10.6875C16.0418 9.81251 15.2293 8.87501 13.7918 8.90626ZM3.04177 12.5C2.60427 13 1.94802 13.2188 1.66677 13.0313C1.38552 12.875 1.47927 12.125 2.07302 11.5938C2.41677 11.2813 2.85427 10.9688 3.13552 10.7813L3.41677 10.625L3.44802 10.5938L3.54177 10.5625C3.72927 11.3125 3.54177 11.9688 3.04177 12.5ZM6.41677 10.2188C6.26052 10.625 5.91677 11.625 5.72927 11.5625C5.54177 11.5313 5.44802 10.75 5.66677 10C5.79177 9.62501 6.07302 9.18751 6.22927 9.00001C6.47927 8.71876 6.76052 8.62501 6.82302 8.75001C6.91677 8.90626 6.51052 9.96876 6.41677 10.2188ZM9.19802 11.5625L9.04177 11.5938V11.5313L9.54177 11L9.82302 10.6563V10.6875C9.82302 11.125 9.38552 11.4375 9.19802 11.5625ZM11.323 11.0625C11.2605 11.0313 11.2918 10.9063 11.448 10.5625C11.5105 10.4063 11.6668 10.1563 11.9168 9.93751L11.9793 10.2188C11.9793 10.7813 11.573 10.9688 11.323 11.0625Z" fill="black"/>
</svg>
