<svg width="16" height="16" viewBox="0 0 16 16" fill="none" xmlns="http://www.w3.org/2000/svg">
<path d="M4 2V5.5L5.5 4.5L7.5 16L0.5 5L1.5 3.5L0 2L2.5 0H3.5L4 2Z" fill="black"/>
<path d="M16 2L14.5 3.5L15.5 5L8.5 16L10.5 4.5L12 5.5V2L12.5 0H13.5L16 2Z" fill="black"/>
<path d="M8 11.5C8.27614 11.5 8.5 11.7239 8.5 12C8.5 12.2761 8.27614 12.5 8 12.5C7.72386 12.5 7.5 12.2761 7.5 12C7.5 11.7239 7.72386 11.5 8 11.5Z" fill="black"/>
<path d="M8 8C8.27614 8 8.5 8.22386 8.5 8.5C8.5 8.77614 8.27614 9 8 9C7.72386 9 7.5 8.77614 7.5 8.5C7.5 8.22386 7.72386 8 8 8Z" fill="black"/>
<path d="M8 4.5C8.27614 4.5 8.5 4.72386 8.5 5C8.5 5.27614 8.27614 5.5 8 5.5C7.72386 5.5 7.5 5.27614 7.5 5C7.5 4.72386 7.72386 4.5 8 4.5Z" fill="black"/>
<path d="M6.5 1.5V3L4.5 4.5V0.5L6.5 1.5Z" fill="black"/>
<path d="M11.5 4.5L9.5 3V1.5L11.5 0.5V4.5Z" fill="black"/>
<path d="M9 3H7V1.5H9V3Z" fill="black"/>
</svg>
