<svg width="16" height="16" viewBox="0 0 16 16" fill="none" xmlns="http://www.w3.org/2000/svg">
<path d="M3.69759 3.08789L7.42389 0.711841C9.54572 -0.6393 12.48 -0.00995297 13.9654 2.11632C14.3181 2.6098 14.5687 3.16879 14.7024 3.76044C14.8361 4.3521 14.8503 4.96451 14.7441 5.56172C14.641 6.13229 14.4233 6.67601 14.104 7.15998C14.5698 8.04711 14.7263 9.06402 14.5485 10.0498C14.3498 11.1568 13.7229 12.1408 12.8036 12.7885L12.6169 12.913L8.89059 15.2882C6.76965 16.6393 3.83448 16.01 2.34822 13.8837C1.99575 13.3901 1.74539 12.8311 1.61183 12.2394C1.47826 11.6478 1.46419 11.0354 1.57043 10.4383C1.67354 9.8676 1.89044 9.32447 2.21044 8.84002C1.74493 7.95301 1.58853 6.93608 1.76599 5.95018C1.96461 4.84346 2.59119 3.85953 3.51003 3.21145L3.6967 3.087L7.42478 0.711841L3.69848 3.087L3.69759 3.08789ZM12.4311 3.095C12.0857 2.59745 11.596 2.21783 11.028 2.00738C10.4601 1.79692 9.84126 1.76575 9.25504 1.91809C9.05415 1.97142 8.86037 2.04787 8.67725 2.14565L8.49769 2.25054L4.77139 4.62481C4.46874 4.81525 4.20917 5.06675 4.00927 5.36324C3.80937 5.65972 3.67354 5.99466 3.61047 6.34663C3.54662 6.7056 3.55509 7.07371 3.63538 7.42936C3.71567 7.78502 3.86616 8.12106 4.07804 8.41779C4.42326 8.91583 4.91302 9.29591 5.48117 9.5067C6.04932 9.71749 6.66847 9.74883 7.255 9.59648C7.45589 9.54314 7.64967 9.46581 7.83279 9.36892L8.01146 9.26403L9.43371 8.35734C9.5043 8.3124 9.58134 8.27853 9.66216 8.25689C10.0239 8.16356 10.4062 8.30489 10.6195 8.61246C10.6832 8.70195 10.7284 8.80321 10.7525 8.91035C10.7766 9.01748 10.7791 9.12834 10.76 9.23647C10.7281 9.41405 10.6354 9.57498 10.4977 9.69159L10.4097 9.75559L6.68343 12.1299C6.61285 12.1748 6.53581 12.2087 6.45498 12.2303C6.27833 12.276 6.09189 12.2665 5.92085 12.2029C5.74981 12.1393 5.6024 12.0248 5.49852 11.8748C5.40798 11.7467 5.3553 11.5958 5.34651 11.4392L5.34829 11.3218L5.36073 11.1832L5.22207 11.1414C4.786 11.0097 4.37087 10.8166 3.98915 10.5681L3.76514 10.4134L3.57403 10.2729L3.50292 10.4863C3.46527 10.6002 3.43557 10.7167 3.41403 10.8347C3.35035 11.1938 3.35898 11.5619 3.43942 11.9175C3.51987 12.2732 3.67049 12.6092 3.88248 12.9059C4.21056 13.3791 4.66954 13.7464 5.20319 13.9627C5.73685 14.179 6.32201 14.2349 6.88699 14.1237L7.05944 14.0837C7.26033 14.0304 7.45411 13.9539 7.63723 13.8561L7.81679 13.7512L11.5431 11.377C11.8457 11.1865 12.1053 10.935 12.3051 10.6385C12.505 10.342 12.6409 10.0071 12.704 9.65515C12.768 9.29604 12.7596 8.92776 12.6793 8.57195C12.599 8.21613 12.4484 7.87994 12.2364 7.5831C11.8911 7.08522 11.4013 6.70531 10.8331 6.49468C10.265 6.28406 9.64592 6.25286 9.05948 6.4053C8.85877 6.45905 8.6649 6.53571 8.48169 6.63375L8.30302 6.73775L6.88077 7.64444C6.81016 7.68932 6.73313 7.72319 6.65232 7.74488C6.47554 7.79082 6.28891 7.78135 6.11769 7.71775C5.94647 7.65416 5.7989 7.53951 5.69496 7.38932C5.63128 7.29985 5.58606 7.19859 5.56194 7.09145C5.53783 6.98431 5.53531 6.87343 5.55452 6.76531C5.58622 6.58768 5.67897 6.4267 5.81675 6.31018L5.90386 6.24618L9.63016 3.87191C9.70102 3.82689 9.77837 3.79301 9.8595 3.77146C10.2213 3.67724 10.6026 3.81857 10.816 4.12614C10.9064 4.25423 10.9591 4.40514 10.968 4.5617L10.9662 4.67993L10.9537 4.8186L11.0915 4.86038C11.5289 4.99193 11.944 5.18483 12.3253 5.43372L12.5493 5.58928L12.7405 5.72884L12.8107 5.5155C12.848 5.40083 12.8782 5.28438 12.8996 5.16705C12.9634 4.80808 12.9549 4.43998 12.8746 4.08433C12.7943 3.72868 12.6438 3.39264 12.432 3.09589L12.4311 3.095Z" fill="black"/>
</svg>
