<svg width="16" height="16" viewBox="0 0 16 16" fill="none" xmlns="http://www.w3.org/2000/svg">
<path d="M7.99994 1C8.25347 1 8.50134 1.0752 8.71214 1.21605C8.92293 1.3569 9.0872 1.5571 9.18422 1.79132C9.28123 2.02554 9.30661 2.28329 9.25715 2.53194C9.20768 2.78058 9.08562 3.00898 8.90635 3.18824V5.81176L10.7614 3.95667C10.7614 3.70314 10.8366 3.45527 10.9775 3.24447C11.1183 3.03368 11.3186 2.86941 11.5528 2.77239C11.787 2.67537 12.0447 2.64995 12.2934 2.69941C12.542 2.74887 12.7704 2.87099 12.9497 3.05026C13.129 3.22952 13.251 3.45791 13.3005 3.70656C13.3499 3.95521 13.3246 4.21295 13.2276 4.44717C13.1305 4.6814 12.9662 4.8816 12.7554 5.02245C12.5446 5.16329 12.2968 5.23844 12.0433 5.23844L10.1881 7.09359H12.8118C12.991 6.91433 13.2194 6.79226 13.4681 6.7428C13.7167 6.69333 13.9745 6.71871 14.2087 6.81572C14.4429 6.91274 14.6431 7.07702 14.784 7.2878C14.9248 7.49859 15 7.74643 15 7.99994C15 8.25347 14.9248 8.50134 14.784 8.71214C14.6431 8.92293 14.4429 9.0872 14.2087 9.18422C13.9745 9.28123 13.7167 9.30661 13.4681 9.25715C13.2194 9.20768 12.991 9.08562 12.8118 8.90635H10.1882L12.0433 10.7615C12.2969 10.7615 12.5447 10.8367 12.7555 10.9776C12.9663 11.1184 13.1306 11.3186 13.2276 11.5528C13.3246 11.787 13.35 12.0448 13.3005 12.2934C13.2511 12.542 13.129 12.7705 12.9497 12.9497C12.7705 13.129 12.5421 13.2511 12.2934 13.3005C12.0448 13.35 11.787 13.3246 11.5528 13.2276C11.3186 13.1306 11.1184 12.9663 10.9776 12.7555C10.8367 12.5447 10.7615 12.2969 10.7615 12.0433L8.90635 10.1882V12.8118C9.08562 12.991 9.20768 13.2194 9.25715 13.4681C9.30661 13.7167 9.28123 13.9745 9.18422 14.2087C9.0872 14.4429 8.92293 14.6431 8.71214 14.784C8.50134 14.9248 8.25347 15 7.99994 15C7.74643 15 7.49859 14.9248 7.2878 14.784C7.07702 14.6431 6.91274 14.4429 6.81572 14.2087C6.71871 13.9745 6.69333 13.7167 6.7428 13.4681C6.79226 13.2194 6.91433 12.991 7.09359 12.8118V10.1881L5.23844 12.0433C5.23844 12.2969 5.16324 12.5447 5.02239 12.7555C4.88154 12.9663 4.68134 13.1306 4.44712 13.2276C4.2129 13.3246 3.95515 13.35 3.7065 13.3005C3.45786 13.2511 3.22946 13.129 3.0502 12.9497C2.87093 12.7705 2.74887 12.542 2.69941 12.2934C2.64996 12.0448 2.67533 11.787 2.77234 11.5528C2.86936 11.3186 3.03367 11.1184 3.24447 10.9776C3.45527 10.8367 3.70309 10.7615 3.95661 10.7615L5.81176 8.90635H3.18824C3.00898 9.08562 2.78058 9.20768 2.53194 9.25715C2.28329 9.30661 2.02554 9.28123 1.79132 9.18422C1.5571 9.0872 1.3569 8.92293 1.21605 8.71214C1.0752 8.50134 1 8.25347 1 7.99994C1.00001 7.74643 1.0752 7.49859 1.21605 7.2878C1.3569 7.07702 1.5571 6.91274 1.79132 6.81572C2.02555 6.71871 2.28329 6.69334 2.53194 6.7428C2.78058 6.79226 3.00898 6.91433 3.18824 7.09359H5.81182L3.95667 5.23844C3.70315 5.23844 3.45532 5.16329 3.24453 5.02245C3.03373 4.8816 2.86941 4.6814 2.77239 4.44717C2.67537 4.21295 2.65 3.95521 2.69946 3.70656C2.74892 3.45791 2.87099 3.22952 3.05026 3.05026C3.22952 2.87099 3.45791 2.74887 3.70656 2.69941C3.95521 2.64995 4.21295 2.67537 4.44717 2.77239C4.68139 2.86941 4.8816 3.03368 5.02245 3.24447C5.1633 3.45527 5.2385 3.70314 5.2385 3.95667L7.09359 5.81176V3.18824C6.91433 3.00898 6.79226 2.78058 6.7428 2.53194C6.69334 2.28329 6.71871 2.02554 6.81572 1.79132C6.91274 1.5571 7.07702 1.3569 7.2878 1.21605C7.49859 1.0752 7.74643 1.00001 7.99994 1Z" fill="black"/>
</svg>
