<svg width="16" height="16" viewBox="0 0 16 16" fill="none" xmlns="http://www.w3.org/2000/svg">
<path d="M9.43042 4.80676C9.56654 4.82018 9.69425 4.87931 9.79272 4.97424C9.89124 5.06923 9.95469 5.19495 9.97302 5.33057C9.99133 5.46615 9.9633 5.60422 9.89355 5.72192C9.82379 5.83954 9.71618 5.9301 9.5885 5.97913C9.46076 6.02815 9.32006 6.03271 9.18945 5.99194L8.62976 6.96265C8.86852 7.14064 9.03313 7.40048 9.09204 7.69238C9.15096 7.98437 9.09963 8.28763 8.94849 8.54431L9.64917 9.06555C9.76301 8.95419 9.90458 8.87505 10.0593 8.8374C10.2142 8.79975 10.3769 8.80521 10.5293 8.85193C10.6815 8.89868 10.8188 8.98527 10.9258 9.10315C11.0328 9.22105 11.1059 9.36585 11.1377 9.52185C11.1663 9.66105 11.1611 9.80555 11.1223 9.94226C11.0835 10.0789 11.012 10.2045 10.9147 10.308C10.8173 10.4113 10.6966 10.49 10.5626 10.537C10.4285 10.584 10.2846 10.598 10.1439 10.578C10.0034 10.5579 9.86981 10.5041 9.75427 10.4216C9.63874 10.3391 9.5446 10.2301 9.47998 10.1038C9.41536 9.97721 9.38163 9.83655 9.38257 9.69446C9.38351 9.55237 9.41883 9.41256 9.48511 9.28687L8.78528 8.76477C8.60766 8.95135 8.37485 9.07613 8.12134 9.12195C7.86784 9.16775 7.60619 9.13201 7.37451 9.01941L6.81482 9.89014C6.93925 10.008 7.01901 10.1654 7.04126 10.3353C7.06345 10.5054 7.02626 10.6781 6.93616 10.8241C6.84605 10.9701 6.70852 11.0804 6.54651 11.1368C6.38451 11.1932 6.2079 11.1927 6.04663 11.1343C5.88548 11.0759 5.74949 10.9633 5.66125 10.8164C5.57302 10.6693 5.53777 10.4957 5.56213 10.3259C5.58652 10.1564 5.66876 10.0004 5.79456 9.88416C5.92056 9.76782 6.08311 9.69841 6.25427 9.68762C6.36285 9.68154 6.47147 9.6995 6.57214 9.7406L7.13269 8.86646C6.95389 8.72039 6.81975 8.52683 6.74731 8.30762C6.67491 8.08845 6.66684 7.85293 6.72339 7.62915L5.52197 7.15662C5.44185 7.26618 5.3246 7.34315 5.19214 7.3728C5.05964 7.40244 4.92084 7.3831 4.80164 7.31812C4.68247 7.25313 4.59043 7.14728 4.54358 7.0199C4.49674 6.89246 4.49825 6.75184 4.547 6.62512C4.59576 6.49849 4.68922 6.3935 4.80933 6.33032C4.92928 6.26736 5.06806 6.25017 5.19983 6.28162C5.33188 6.31324 5.4486 6.39214 5.5271 6.50293C5.60543 6.61365 5.64102 6.74911 5.62708 6.88403V6.89685L6.82849 7.36853C6.92532 7.1815 7.06952 7.02324 7.24634 6.90881C7.42315 6.79439 7.62651 6.72743 7.83679 6.7157C8.02602 6.7064 8.21508 6.74091 8.38879 6.81653L8.94849 5.84668C8.8806 5.78217 8.82875 5.70244 8.79724 5.61426C8.75174 5.48519 8.75114 5.34381 8.79553 5.21436C8.83995 5.08502 8.92743 4.9747 9.04248 4.90076C9.15757 4.82685 9.29429 4.79338 9.43042 4.80676Z" fill="black"/>
<path fill-rule="evenodd" clip-rule="evenodd" d="M9.1698 1C9.28043 1.42008 9.36498 1.84029 9.4364 2.26038C10.0038 2.40159 10.5476 2.62542 11.0497 2.92517C11.3982 2.67746 11.7538 2.43964 12.1289 2.21851L13.7832 3.86511C13.5689 4.22917 13.3388 4.57612 13.0979 4.91357C13.4201 5.42889 13.6632 5.98988 13.8191 6.57727C14.2182 6.64448 14.6093 6.72403 15 6.82764V9.15356C14.6303 9.25158 14.2606 9.32615 13.8909 9.39197C13.7577 10.0325 13.5214 10.6473 13.191 11.212C13.3986 11.5065 13.5938 11.8095 13.7772 12.1195L12.1281 13.7704C11.8382 13.5982 11.5579 13.4148 11.2778 13.2244C10.6993 13.6059 10.0592 13.8848 9.38599 14.049C9.32717 14.3654 9.25926 14.6821 9.17664 15H6.83533C6.75555 14.6907 6.68881 14.3827 6.63281 14.072C5.94002 13.9189 5.27939 13.6435 4.68286 13.2594C4.42243 13.4386 4.15625 13.6123 3.87622 13.7747L2.22705 12.1238C2.39321 11.8362 2.57171 11.556 2.76196 11.2838C2.40601 10.6973 2.15323 10.0536 2.01428 9.38171C1.67542 9.32011 1.33887 9.25086 1 9.16125V6.82935C1.36408 6.73414 1.7254 6.65877 2.08948 6.59436C2.25241 5.97506 2.51286 5.38521 2.86108 4.84778C2.63847 4.53138 2.42587 4.20787 2.22705 3.86768L3.87622 2.22534C4.23753 2.43538 4.57973 2.6646 4.91443 2.90125C5.43163 2.60055 5.99112 2.37877 6.57385 2.24329C6.64386 1.82889 6.72612 1.42 6.83533 1H9.1698ZM7.95557 3.73438C7.46589 3.7342 6.97956 3.8158 6.5166 3.97534C6.4139 4.01082 6.31516 4.04885 6.2218 4.08899C5.25124 4.50929 4.46216 5.26189 3.9967 6.21155C3.9673 6.27036 3.94073 6.32962 3.91553 6.38843C3.46229 7.4332 3.4317 8.61272 3.82922 9.67993L3.85144 9.73889C4.06737 10.2905 4.39159 10.7938 4.80505 11.218C5.21847 11.6422 5.71272 11.9792 6.25854 12.2092C6.2592 12.212 6.2592 12.215 6.25854 12.2178C6.80898 12.4468 7.40043 12.5617 7.99658 12.5562C8.59264 12.5506 9.18178 12.4244 9.72778 12.1853L9.75684 12.1656C10.8124 11.6905 11.6408 10.8219 12.0648 9.74487C12.0844 9.70288 12.101 9.65373 12.1178 9.60474C12.4748 8.58715 12.4452 7.47377 12.0349 6.47644C11.9985 6.38782 11.9598 6.30071 11.9178 6.21582C11.4689 5.30065 10.7179 4.56811 9.79187 4.14197C9.68549 4.08599 9.57774 4.04242 9.46716 4.00183C8.98326 3.82402 8.47111 3.73346 7.95557 3.73438Z" fill="black"/>
</svg>
