<svg width="18" height="17" viewBox="0 0 18 17" fill="none" xmlns="http://www.w3.org/2000/svg">
<path d="M1.5 9.53027L4.5 12.5303M7.5 15.5303L4.5 12.5303M4.5 12.5303L7.5 9.53027M4.5 12.5303L1.5 15.5303" stroke="black" stroke-width="1.5" stroke-linejoin="round"/>
<path d="M13.5 9.03027V12.5303M13.5 16.0303V12.5303M13.5 12.5303H10M13.5 12.5303H17" stroke="black" stroke-width="1.5" stroke-linejoin="round"/>
<path d="M10 4.03027H13.5H17" stroke="black" stroke-width="1.5" stroke-linejoin="round"/>
<path d="M8.03027 1.06055L2.03027 7.06055L0.969727 6L6.96973 0L8.03027 1.06055ZM6.5 4.03027C7.32843 4.03027 8 4.70185 8 5.53027C8 6.3587 7.32843 7.03027 6.5 7.03027C5.67157 7.03027 5 6.3587 5 5.53027C5 4.70185 5.67157 4.03027 6.5 4.03027ZM6.5 5.03027C6.22386 5.03027 6 5.25413 6 5.53027C6 5.80642 6.22386 6.03027 6.5 6.03027C6.77614 6.03027 7 5.80642 7 5.53027C7 5.25413 6.77614 5.03027 6.5 5.03027ZM2.5 0.0302734C3.32843 0.0302734 4 0.701846 4 1.53027C4 2.3587 3.32843 3.03027 2.5 3.03027C1.67157 3.03027 1 2.3587 1 1.53027C1 0.701846 1.67157 0.0302734 2.5 0.0302734ZM2.5 1.03027C2.22386 1.03027 2 1.25413 2 1.53027C2 1.80642 2.22386 2.03027 2.5 2.03027C2.77614 2.03027 3 1.80642 3 1.53027C3 1.25413 2.77614 1.03027 2.5 1.03027Z" fill="black"/>
</svg>
