<svg width="18" height="16" viewBox="0 0 18 16" fill="none" xmlns="http://www.w3.org/2000/svg">
<path d="M3.75 11H7.25M2.75 15.25H8.25C9.35457 15.25 10.25 14.3546 10.25 13.25V8.75C10.25 7.64543 9.35457 6.75 8.25 6.75H2.75C1.64543 6.75 0.75 7.64543 0.75 8.75V13.25C0.75 14.3546 1.64543 15.25 2.75 15.25Z" stroke="black" stroke-width="1.5" stroke-linecap="round"/>
<path d="M15.25 0C16.7688 0 18 1.23122 18 2.75V7.25C18 8.76878 16.7688 10 15.25 10H12V8.75L11.9951 8.55664C11.9942 8.53771 11.9925 8.51886 11.9912 8.5H15.25C15.9404 8.5 16.5 7.94036 16.5 7.25V2.75C16.5 2.05964 15.9404 1.5 15.25 1.5H9.75C9.05964 1.5 8.5 2.05964 8.5 2.75V5.00879C8.41736 5.00335 8.33402 5 8.25 5H7V2.75C7 1.23122 8.23122 0 9.75 0H15.25ZM14.25 5.5C14.6642 5.5 15 5.83579 15 6.25C15 6.66421 14.6642 7 14.25 7H11.5674C11.2747 6.4463 10.8474 5.97484 10.3291 5.62891C10.4491 5.54744 10.594 5.5 10.75 5.5H14.25ZM14.25 3C14.6642 3 15 3.33579 15 3.75C15 4.16421 14.6642 4.5 14.25 4.5H10.75C10.3358 4.5 10 4.16421 10 3.75C10 3.33579 10.3358 3 10.75 3H14.25Z" fill="black"/>
</svg>
