<svg width="18" height="16" viewBox="0 0 18 16" fill="none" xmlns="http://www.w3.org/2000/svg">
<path d="M9 0.75C13.0041 0.75 16.25 3.99594 16.25 8C16.25 12.0041 13.0041 15.25 9 15.25C8.66228 15.25 8.33 15.2267 8.00463 15.1819C7.53087 15.1165 7.48726 14.4198 7.84255 14.0997C8.5532 13.4593 9 12.532 9 11.5C9 9.567 7.433 8 5.5 8C4.46816 8 3.54049 8.44647 2.89982 9.15678C2.5795 9.51192 1.88291 9.46806 1.81779 8.99427C1.77311 8.66923 1.75 8.33732 1.75 8C1.75 3.99594 4.99594 0.75 9 0.75Z" stroke="black" stroke-width="1.5" stroke-linejoin="round"/>
<circle cx="6" cy="5" r="1" fill="black"/>
<circle cx="9" cy="4" r="1" fill="black"/>
<circle cx="12" cy="5" r="1" fill="black"/>
<circle cx="13" cy="8" r="1" fill="black"/>
<circle cx="12" cy="11" r="1" fill="black"/>
</svg>
