<svg width="16" height="16" viewBox="0 0 16 16" fill="none" xmlns="http://www.w3.org/2000/svg">
<path fill-rule="evenodd" clip-rule="evenodd" d="M11.0001 0C11.4417 0 11.8705 0.0575164 12.2784 0.165039C12.456 0.212203 12.507 0.432429 12.377 0.5625L9.68463 3.25391C9.62147 3.31706 9.59706 3.40982 9.62017 3.49609L10.1924 5.63184C10.2156 5.71809 10.2829 5.78548 10.3692 5.80859L12.5049 6.38086C12.5911 6.40394 12.683 6.37936 12.7461 6.31641L15.4385 3.625C15.5687 3.49484 15.7891 3.54559 15.836 3.72363C15.9432 4.13106 16.0001 4.5589 16.0001 5C16.0001 7.76142 13.7615 10 11.0001 10C10.1614 10 9.37095 9.7936 8.67681 9.42871L4.26763 15.2676C3.29132 16.2439 1.70879 16.2439 0.732477 15.2676C-0.243834 14.2913 -0.243834 12.7087 0.732477 11.7324L6.57134 7.32324C6.20646 6.6291 6.00006 5.83865 6.00006 5C6.00006 2.23858 8.23863 0 11.0001 0ZM2.50006 12.5C1.94777 12.5 1.50006 12.9477 1.50006 13.5C1.50006 14.0523 1.94777 14.5 2.50006 14.5C3.05234 14.5 3.50006 14.0523 3.50006 13.5C3.50006 12.9477 3.05234 12.5 2.50006 12.5Z" fill="black"/>
</svg>
