<svg width="16" height="16" viewBox="0 0 16 16" fill="none" xmlns="http://www.w3.org/2000/svg">
<path d="M9.5 1.00006C9.63242 1.00016 9.75985 1.05294 9.85352 1.14655L13.8535 5.14655C13.9471 5.24028 14 5.3676 14 5.50006V12.5001C13.9999 13.8805 12.8805 14.9999 11.5 15.0001H5.5C4.11948 14.9999 3.00013 13.8806 3 12.5001V9.97272C3.0045 9.97732 3.00813 9.9828 3.0127 9.98737C3.29054 10.2651 3.63888 10.4276 4 10.4796V12.5001C4.00013 13.3283 4.67177 13.9999 5.5 14.0001H11.5C12.3282 13.9999 12.9999 13.3283 13 12.5001V6.00006H11C9.89562 5.99993 9.00013 5.10444 9 4.00006V2.00006H5.5C4.84377 2.00017 4.28644 2.42182 4.08301 3.00885C3.6924 3.04612 3.31186 3.21366 3.0127 3.51276C3.00829 3.51716 3.00434 3.52199 3 3.52643V3.50006C3 2.11943 4.1194 1.00019 5.5 1.00006H9.5ZM4.14648 4.64655C4.34172 4.45143 4.65828 4.45143 4.85352 4.64655L6.85352 6.64655C7.04854 6.84179 7.0486 7.15837 6.85352 7.35358L4.85352 9.35358C4.6583 9.54857 4.3417 9.54857 4.14648 9.35358C3.9514 9.15837 3.95146 8.84179 4.14648 8.64655L5.29297 7.50006H2.5C1.67164 7.50006 1.00012 8.17173 1 9.00006C1.00017 9.65272 1.41791 10.2061 2 10.4122V11.4493C0.859063 11.2176 0.000191215 10.2093 0 9.00006C0.000115914 7.61945 1.11936 6.50006 2.5 6.50006H5.29297L4.14648 5.35358C3.9514 5.15837 3.95146 4.84179 4.14648 4.64655Z" fill="black"/>
</svg>
