<svg width="18" height="16" viewBox="0 0 18 16" fill="none" xmlns="http://www.w3.org/2000/svg">
<path d="M15.25 4.375L9.52983 1.042C9.21991 0.861423 8.83702 0.86066 8.52638 1.04L2.75 4.375M15.25 4.375V11.049C15.25 11.4055 15.0602 11.7351 14.7517 11.914L9.50172 14.959C9.19144 15.139 8.80856 15.139 8.49828 14.959L3.24828 11.914C2.93985 11.7351 2.75 11.4055 2.75 11.049V4.375M15.25 4.375C13.5633 5.3582 9.02867 7.91989 9.02867 7.91989M2.75 4.375C4.45809 5.36117 9.02867 7.91989 9.02867 7.91989M9.02867 7.91989L9 14.5" stroke="black" stroke-width="1.5" stroke-linejoin="round"/>
</svg>
