<svg width="16" height="16" viewBox="0 0 16 16" fill="none" xmlns="http://www.w3.org/2000/svg">
<path d="M2.75 4.75C2.75 3.23122 3.98122 2 5.5 2H6C6.41421 2 6.75 2.33579 6.75 2.75C6.75 3.16421 6.41421 3.5 6 3.5H5.5C4.80964 3.5 4.25 4.05964 4.25 4.75V6.2457C4.25 7.02704 3.73204 7.71371 2.98076 7.92837L2.73004 8L2.98076 8.07163C3.73204 8.28628 4.25 8.97296 4.25 9.7543V11.25C4.25 11.9404 4.80964 12.5 5.5 12.5H6C6.41421 12.5 6.75 12.8358 6.75 13.25C6.75 13.6642 6.41421 14 6 14H5.5C3.98122 14 2.75 12.7688 2.75 11.25V9.7543C2.75 9.64268 2.67601 9.54458 2.56868 9.51392L2.02472 9.3585C1.41818 9.1852 1 8.63082 1 8C1 7.36918 1.41818 6.8148 2.02472 6.6415L2.56868 6.48608C2.67601 6.45542 2.75 6.35732 2.75 6.2457V4.75Z" fill="black"/>
<path d="M9.25 2.75C9.25 2.33579 9.58579 2 10 2H10.5C12.0188 2 13.25 3.23122 13.25 4.75V6.2457C13.25 6.35732 13.324 6.45542 13.4313 6.48608L13.9753 6.6415C14.5818 6.8148 15 7.36918 15 8C15 8.63082 14.5818 9.1852 13.9753 9.3585L13.4313 9.51392C13.324 9.54458 13.25 9.64268 13.25 9.7543V11.25C13.25 12.7688 12.0188 14 10.5 14H10C9.58579 14 9.25 13.6642 9.25 13.25C9.25 12.8358 9.58579 12.5 10 12.5H10.5C11.1904 12.5 11.75 11.9404 11.75 11.25V9.7543C11.75 8.97296 12.268 8.28628 13.0192 8.07163L13.27 8L13.0192 7.92837C12.268 7.71371 11.75 7.02704 11.75 6.2457V4.75C11.75 4.05964 11.1904 3.5 10.5 3.5H10C9.58579 3.5 9.25 3.16421 9.25 2.75Z" fill="black"/>
</svg>
