<svg width="18" height="16" viewBox="0 0 18 16" fill="none" xmlns="http://www.w3.org/2000/svg">
<path d="M18 7.60519H16.703C16.595 6.87468 16.1001 6.47143 15.3776 6.47143C14.4447 6.47143 13.9328 7.16104 13.9328 8.41753V8.90844C13.9328 10.1649 14.4447 10.8545 15.3776 10.8545C16.1058 10.8545 16.5893 10.4688 16.703 9.76169H18C17.8578 11.1935 16.9078 12 15.389 12C13.6085 12 12.6017 10.9364 12.6017 9.03117V8.29481C12.6017 6.39545 13.6085 5.32597 15.389 5.32597C16.9135 5.32597 17.8521 6.13831 18 7.60519Z" fill="black"/>
<path d="M9.57453 11.9708C8.67007 11.9708 8.03866 11.5675 7.78268 10.8195H7.66891V11.8714H6.32075V3H7.69166V6.51818H7.80543C8.03866 5.77597 8.67576 5.36104 9.57453 5.36104C11.008 5.36104 11.8897 6.39545 11.8897 8.0961V9.23571C11.8897 10.9422 11.008 11.9708 9.57453 11.9708ZM9.10239 10.7844C9.98979 10.7844 10.5473 10.1591 10.5473 9.1539V8.15455C10.5473 7.14935 9.98979 6.51818 9.10239 6.51818C8.215 6.51818 7.65753 7.14351 7.65753 8.15455V9.1539C7.65753 10.1591 8.215 10.7844 9.10239 10.7844Z" fill="black"/>
<path d="M1.97388 11.9766C0.790691 11.9766 0 11.2052 0 10.0481C0 8.9026 0.807757 8.22468 2.29812 8.13117L3.85675 8.03766V7.5C3.85675 6.83961 3.4415 6.46558 2.71338 6.46558C2.10472 6.46558 1.66102 6.73442 1.5245 7.20195H0.227537C0.341306 6.0974 1.34816 5.36688 2.74751 5.36688C4.28907 5.36688 5.16509 6.14416 5.16509 7.51169V11.8714H3.90795V10.9773H3.78849C3.48701 11.6143 2.82146 11.9766 1.97388 11.9766ZM2.40052 10.8662C3.2424 10.8662 3.85675 10.311 3.85675 9.53961V8.95519L2.49722 9.03117C1.7179 9.07792 1.31403 9.39935 1.31403 9.96623C1.31403 10.5214 1.73497 10.8662 2.40052 10.8662Z" fill="black"/>
</svg>
