<svg width="18" height="16" viewBox="0 0 18 16" fill="none" xmlns="http://www.w3.org/2000/svg">
<path d="M1.75 3.75C1.75 2.64543 2.64543 1.75 3.75 1.75H14.25C15.3546 1.75 16.25 2.64543 16.25 3.75V5.25C16.25 6.35457 15.3546 7.25 14.25 7.25H3.75C2.64543 7.25 1.75 6.35457 1.75 5.25V3.75Z" stroke="black" stroke-width="1.5"/>
<path d="M1.75 11.75C1.75 10.6454 2.64543 9.75 3.75 9.75H5.25C6.35457 9.75 7.25 10.6454 7.25 11.75V13.25C7.25 14.3546 6.35457 15.25 5.25 15.25H3.75C2.64543 15.25 1.75 14.3546 1.75 13.25V11.75Z" stroke="black" stroke-width="1.5"/>
<path d="M10.75 11.75C10.75 10.6454 11.6454 9.75 12.75 9.75H14.25C15.3546 9.75 16.25 10.6454 16.25 11.75V13.25C16.25 14.3546 15.3546 15.25 14.25 15.25H12.75C11.6454 15.25 10.75 14.3546 10.75 13.25V11.75Z" stroke="black" stroke-width="1.5"/>
</svg>
