<svg width="18" height="16" viewBox="0 0 18 16" fill="none" xmlns="http://www.w3.org/2000/svg">
<path d="M13.75 5.6V8.54397C13.75 8.90053 13.5602 9.23011 13.2517 9.409L8.78448 12M13.75 5.6L10.1382 4.16764C9.86965 4.06113 9.56814 4.07598 9.31134 4.20838L4.75 6.56M13.75 5.6L8.91929 8.0905M8.78448 12L5.38135 10.6504C5.00025 10.4992 4.75 10.1308 4.75 9.72081V6.56M8.78448 12V8.83919C8.78448 8.42921 8.53424 8.06076 8.15313 7.90962L4.75 6.56" stroke="black" stroke-width="1.5" stroke-linejoin="round"/>
<path d="M3.25 1.75H1.75C1.19772 1.75 0.75 2.19772 0.75 2.75V13.25C0.75 13.8023 1.19772 14.25 1.75 14.25H3.25M14.75 1.75H16.25C16.8023 1.75 17.25 2.19772 17.25 2.75V13.25C17.25 13.8023 16.8023 14.25 16.25 14.25H14.75" stroke="black" stroke-width="1.5" stroke-linecap="round"/>
</svg>
