<svg width="16" height="16" viewBox="0 0 16 16" fill="none" xmlns="http://www.w3.org/2000/svg">
<path d="M9 4.99994C9.55226 4.99994 9.99995 5.4477 10 5.99994V9.99994C10 10.5522 9.55228 10.9999 9 10.9999H7C6.44772 10.9999 6 10.5522 6 9.99994V5.99994C6.00005 5.4477 6.44774 4.99994 7 4.99994H9Z" fill="#101023"/>
<path fill-rule="evenodd" clip-rule="evenodd" d="M7.5 1.21088C7.8093 1.03241 8.1907 1.03241 8.5 1.21088L13.6289 4.1728C13.9383 4.35141 14.1289 4.68178 14.1289 5.03901V10.9609C14.1289 11.3181 13.9383 11.6485 13.6289 11.8271L8.5 14.789C8.19069 14.9675 7.80932 14.9675 7.5 14.789L2.37109 11.8271C2.06172 11.6485 1.87109 11.3181 1.87109 10.9609V5.03901C1.87113 4.68178 2.06172 4.35141 2.37109 4.1728L7.5 1.21088ZM2.87109 5.03901V10.9609L8 13.9228L13.1289 10.9609V5.03901L8 2.07709L2.87109 5.03901Z" fill="#101023"/>
</svg>
