<svg width="16" height="16" viewBox="0 0 16 16" fill="none" xmlns="http://www.w3.org/2000/svg">
<path d="M8.61415 15.8563C8.41851 16.1357 8.01868 15.9803 8.01868 15.6256V12.2194C8.01876 12.1212 8.00157 12.0239 7.96811 11.9332C7.93464 11.8424 7.88555 11.7599 7.82365 11.6905C7.76175 11.621 7.68824 11.5659 7.60735 11.5284C7.52645 11.4908 7.43975 11.4715 7.35221 11.4716H4.0004C3.72933 11.4716 3.5714 11.1278 3.72933 10.8805L5.93323 7.41885C6.24849 6.92395 5.93323 6.23598 5.3905 6.23598H1.33391C1.06285 6.23598 0.90492 5.89216 1.06285 5.64487L3.91967 1.1567C3.98272 1.05852 4.08348 1 4.19073 1H12.704C12.9751 1 13.133 1.34382 12.9751 1.59111L10.7712 5.05277C10.4559 5.54801 10.7712 6.23598 11.3139 6.23598H14.666C14.9439 6.23598 15.1 6.59567 14.9283 6.84097L8.61444 15.857L8.61415 15.8563Z" fill="black"/>
</svg>
