<svg width="16" height="16" viewBox="0 0 16 16" fill="none" xmlns="http://www.w3.org/2000/svg">
<g opacity="0.75">
<path d="M5.1098 9.68278L2.70638 11.5167C2.48264 11.6874 2.16965 11.6735 1.96185 11.4835L1.19109 10.7786C0.936915 10.5462 0.936568 10.1442 1.19041 9.91146L3.27478 7.99985L5.1098 9.68278Z" fill="black"/>
<path d="M10.6278 1.25685C10.9505 0.93239 11.5022 1.16224 11.5023 1.62117V4.80536L7.3155 7.99985L5.10993 6.31692L10.6278 1.25685Z" fill="black"/>
</g>
<g opacity="0.65">
<path d="M11.0979 14.9875C11.1205 14.9914 11.1432 14.9943 11.166 14.9963C11.1541 14.9953 11.1423 14.994 11.1306 14.9925L11.0979 14.9875Z" fill="black"/>
<path d="M1.96165 4.51655C2.16944 4.32656 2.48244 4.31247 2.70618 4.48316L11.5021 11.1945V14.3787C11.5021 14.8377 10.9503 15.0676 10.6276 14.743L1.19021 6.08858C0.936383 5.85581 0.936631 5.45383 1.19075 5.22142L1.96165 4.51655Z" fill="black"/>
</g>
<path d="M11.6222 14.9133C11.2884 15.0748 10.8896 15.0065 10.6277 14.7431C10.9504 15.0676 11.5022 14.8378 11.5022 14.3788V1.62121C11.5022 1.16221 10.9504 0.932331 10.6277 1.2569C10.8896 0.993478 11.2884 0.925216 11.6222 1.08667L14.5045 2.48085C14.8074 2.62734 15 2.93546 15 3.27348V12.7265C15 13.0646 14.8074 13.3727 14.5045 13.5192L11.6222 14.9133Z" fill="black"/>
</svg>
