<svg width="16" height="16" viewBox="0 0 16 16" fill="none" xmlns="http://www.w3.org/2000/svg">
<path opacity="0.2" d="M13 1C14.1046 1 15 1.89543 15 3V13C15 14.1046 14.1046 15 13 15H3C1.89543 15 1 14.1046 1 13V3C1 1.89543 1.89543 1 3 1H6C6 2.10457 6.89543 3 8 3C9.10457 3 10 2.10457 10 1H13Z" fill="black"/>
<path d="M4.643 11.4026H4.65558L5.46 8H6.37318L7.09581 11.4448H7.1075L7.86967 8H8.82779L7.58386 13H6.61226L5.89502 9.59741H5.88334L5.10678 13H4.119L3 8H3.97519L4.643 11.4026Z" fill="black"/>
<path fill-rule="evenodd" clip-rule="evenodd" d="M13 13H11.9844L11.6518 11.8871H9.89646L9.6403 13H8.66511L9.92612 8H11.4658L13 13ZM10.513 9.2319L10.0879 11.0672H11.4127L10.9238 9.2319H10.513Z" fill="black"/>
</svg>
