<svg width="16" height="16" viewBox="0 0 16 16" fill="none" xmlns="http://www.w3.org/2000/svg">
<path d="M13 1C14.1046 1 15 1.89543 15 3V13C15 14.1046 14.1046 15 13 15H3C1.89543 15 1 14.1046 1 13V3C1 1.89543 1.89543 1 3 1H6C6 2.10457 6.89543 3 8 3C9.10457 3 10 2.10457 10 1H13ZM4.11914 13H5.10645L5.88379 9.59766H5.89551L6.6123 13H7.58398L8.82812 8H7.87012L7.10742 11.4453H7.0957L6.37305 8H5.45996L4.65527 11.4023H4.64258L3.97559 8H3L4.11914 13ZM8.66504 13H9.64062L9.89648 11.8867H11.6514L11.9844 13H13L11.4658 8H9.92578L8.66504 13ZM11.4131 11.0674H10.0879L10.5127 9.23145H10.9238L11.4131 11.0674Z" fill="black"/>
</svg>
