<svg width="16" height="16" viewBox="0 0 16 16" fill="none" xmlns="http://www.w3.org/2000/svg">
<path d="M7.5 2C8.32843 2 9 2.67157 9 3.5V6.5C9 7.32843 8.32843 8 7.5 8H5.5V10C5.5 10.8284 6.17157 11.5 7 11.5V10.5C7 9.67157 7.67157 9 8.5 9H13.5C14.3284 9 15 9.67157 15 10.5V13.5C15 14.3284 14.3284 15 13.5 15H8.5C7.67157 15 7 14.3284 7 13.5V12.5C5.61929 12.5 4.5 11.3807 4.5 10V8H2.5C1.67157 8 1 7.32843 1 6.5V3.5C1 2.67157 1.67157 2 2.5 2H7.5ZM8.5 10C8.22386 10 8 10.2239 8 10.5V13.5C8 13.7761 8.22386 14 8.5 14H13.5C13.7761 14 14 13.7761 14 13.5V10.5C14 10.2239 13.7761 10 13.5 10H8.5ZM2.5 3C2.22386 3 2 3.22386 2 3.5V6.5C2 6.77614 2.22386 7 2.5 7H7.5C7.77614 7 8 6.77614 8 6.5V3.5C8 3.22386 7.77614 3 7.5 3H2.5Z" fill="black"/>
</svg>
